<?xml version="1.0" encoding="utf-8"?>
<!-- Generator: Adobe Illustrator 25.0.1, SVG Export Plug-In . SVG Version: 6.00 Build 0)  -->
<svg version="1.1" xmlns="http://www.w3.org/2000/svg" xmlns:xlink="http://www.w3.org/1999/xlink" x="0px" y="0px"
	 viewBox="0 0 231.1 269.3" style="enable-background:new 0 0 231.1 269.3;" xml:space="preserve">
<style type="text/css">
	.st0{opacity:0.15;fill:#58B39C;}
	.st1{fill:none;stroke:#000000;stroke-miterlimit:10;}
	.st2{fill:none;stroke:#000000;stroke-width:3;stroke-linecap:round;stroke-linejoin:round;stroke-miterlimit:10;}
	.st3{fill:none;stroke:#000000;stroke-width:4;stroke-linecap:round;stroke-linejoin:round;stroke-miterlimit:10;}
	.st4{fill:none;stroke:#E6007E;stroke-linecap:round;stroke-linejoin:round;stroke-miterlimit:10;}
	.st5{fill:none;stroke:#000000;stroke-width:3;stroke-linecap:round;stroke-miterlimit:10;}
	.st6{fill:#58B39C;}
	.st7{fill:#D61B16;}
	.st8{fill:#007A73;}
	.st9{fill:#FFFFFF;}
	.st10{fill:none;stroke:#000000;stroke-width:3;stroke-miterlimit:10;}
	.st11{fill:none;stroke:#AB223D;stroke-width:11;stroke-miterlimit:10;}
	.st12{fill:none;stroke:#68AF9D;stroke-width:11;stroke-miterlimit:10;}
	.st13{fill:none;stroke:#E4BB58;stroke-width:11;stroke-miterlimit:10;}
	.st14{fill:none;stroke:#85A441;stroke-width:11;stroke-miterlimit:10;}
	.st15{fill:none;stroke:#FFFFFF;stroke-width:6;stroke-miterlimit:10;}
</style>
<g id="Capa_1">
	<g>
		<path class="st9" d="M92.8,267.6c-30.3,0-53.5-11.6-73-36.6c-17.7-22.6-23.5-48.8-17.4-78c4.6-22,15.8-41.2,25.7-58
			C43.7,68.2,61.7,40,83.2,8.5C86.9,3.1,92.1,0,97.6,0c0,0,0,0,0,0c5.4,0,10.4,2.9,14,8.2c6.5,9.6,11.9,17.6,16.8,25.2l2.2,3.3
			c16.1,24.8,32.8,50.5,46.8,77.2c7.5,14.4,16.9,32.3,16.9,52.2h-6c0-18.4-9-35.6-16.2-49.4c-13.9-26.5-30.5-52.1-46.5-76.7
			l-2.2-3.3c-4.9-7.5-10.2-15.5-16.7-25.1C104.2,8,101,6,97.6,6c0,0,0,0,0,0c-3.5,0-6.9,2.1-9.5,5.9c-21.4,31.4-39.3,59.5-54.9,86
			c-9.7,16.5-20.6,35.2-25.1,56.2c-5.8,27.4-0.3,51.9,16.2,73.1c18.6,23.7,39.7,34.3,68.3,34.3V267.6z"/>
		<path class="st9" d="M92.9,246.2c-31.5-0.4-67.3-24.9-72.8-65.3c-0.3-2.3-0.5-4.7-0.6-7c-0.1-1-0.1-2.1-0.2-3.1l0-0.2
			c-0.1-18.8,7.4-34.6,15.5-49c10.8-19.1,22.6-37.7,34.1-55.8c3.5-5.4,6.9-10.9,10.3-16.3l0.5-0.9c4.2-6.7,9.9-15.8,19-15.8
			c7.4,0,12.1,8.4,15.2,14c0.6,1.1,1.1,2,1.5,2.6c2.9,4.6,5.8,9.1,8.6,13.5c15.9,24.7,29.7,46.1,42.7,74.1c3.5,7.5,6,19.2,6,28l-6,0
			c0-8-2.3-18.7-5.4-25.4c-12.9-27.7-26.5-48.9-42.3-73.4c-2.8-4.4-5.7-8.9-8.6-13.5c-0.5-0.8-1.1-1.8-1.7-2.9
			c-2.3-4.1-6.1-10.9-9.9-10.9c-5.8,0-10.3,7.2-13.9,13l-0.6,0.9c-3.4,5.5-6.9,10.9-10.4,16.4c-11.4,18-23.2,36.6-33.9,55.5
			c-7.7,13.6-14.8,28.5-14.7,45.9c0.1,1,0.2,2.1,0.2,3.1c0.2,2.3,0.3,4.4,0.6,6.6c5,37.2,38,59.8,66.9,60.1L92.9,246.2z"/>
		<path class="st9" d="M93.1,224.5c-14.1,0-27.1-5.3-36.6-15c-10.6-10.7-16.3-26.1-16-43.2c0.2-8.5,3.4-19.4,8.2-27.8
			c6.8-12,18.3-30.6,34-55.5c0.8-1.3,1.3-2.1,1.4-2.3c4.7-7.9,8.8-11.4,13.3-11.4c0,0,0.1,0,0.1,0c5.5,0.1,9.3,5.6,12.7,11.5
			c2,3,30.3,44.6,36.1,56.7c4.2,8.7,6.4,18.1,6.4,26.5h-6c0-7.5-2.1-16-5.9-24c-5.7-11.9-35.4-55.6-35.7-56l-0.1-0.2
			c-3.2-5.6-5.7-8.5-7.6-8.5c0,0,0,0,0,0c-0.9,0-3.6,0.8-8.1,8.5c-0.1,0.1-0.6,1-1.5,2.4c-15.7,24.8-27,43.3-33.8,55.2
			c-5.3,9.2-7.3,19.2-7.4,25c-0.2,15.5,4.8,29.3,14.3,38.9c8.4,8.5,19.9,13.2,32.3,13.2V224.5z"/>
		<path class="st9" d="M93.1,204.4c-9.3,0-17.2-3.6-22.8-10.3c-5.2-6.2-8.1-15-8.1-24.8c-0.1-5.1,1.9-11.9,5.4-18.2
			c6.6-12,13.8-24.6,21.3-37.4c2.3-4,5-6,8-6c0,0,0,0,0,0c3,0,5.8,2,8.1,6c2.4,4,4.7,7.8,6.9,11.4c4.9,8,9.6,15.5,14.2,24.6
			c0.5,1,4.8,9.7,4.8,15.7h-6c0-3.5-2.5-9.7-4.1-13c-4.5-8.9-9.1-16.3-13.9-24.2c-2.3-3.7-4.6-7.4-7-11.5c-1.4-2.4-2.5-3-3-3
			c0,0,0,0,0,0c-0.4,0-1.5,0.6-2.9,3c-7.5,12.8-14.6,25.3-21.2,37.3c-2.9,5.4-4.7,11.2-4.7,15.3c0,8.4,2.4,15.8,6.7,21
			c4.4,5.3,10.7,8.1,18.2,8.1V204.4z"/>
		<g>
			<path class="st9" d="M110.8,198.3l6.9-21.9h2.5l7.3,21.9h-2.7l-2.1-6.6h-7.5l-1.9,6.6H110.8z M116,189.3h6.1l-1.9-6.1
				c-0.6-1.9-1-3.4-1.3-4.5c-0.2,1.4-0.6,2.8-1,4.2L116,189.3z"/>
			<path class="st9" d="M129.5,191.2l2.2-0.2c0.1,1.2,0.4,2.1,0.8,2.8c0.4,0.7,1,1.2,1.8,1.6c0.8,0.4,1.7,0.6,2.7,0.6
				c1.4,0,2.5-0.3,3.3-1c0.8-0.7,1.2-1.6,1.2-2.7c0-0.6-0.1-1.2-0.4-1.7c-0.3-0.5-0.7-0.9-1.3-1.2c-0.6-0.3-1.8-0.7-3.7-1.3
				c-1.7-0.5-2.9-1-3.6-1.5c-0.7-0.5-1.3-1.2-1.7-1.9c-0.4-0.8-0.6-1.7-0.6-2.6c0-1.8,0.6-3.2,1.7-4.3c1.1-1.1,2.7-1.7,4.6-1.7
				c1.3,0,2.5,0.3,3.5,0.8c1,0.5,1.8,1.3,2.3,2.3c0.6,1,0.8,2.1,0.9,3.5l-2.3,0.2c-0.1-1.4-0.5-2.5-1.3-3.2c-0.7-0.7-1.8-1-3.1-1
				c-1.3,0-2.4,0.3-3.1,0.9c-0.7,0.6-1.1,1.4-1.1,2.3c0,0.9,0.3,1.6,0.8,2.1c0.5,0.5,1.7,1,3.5,1.5c1.8,0.5,3,0.9,3.7,1.3
				c1.1,0.6,1.9,1.3,2.5,2.2c0.6,0.9,0.8,2,0.8,3.3c0,1.3-0.3,2.4-0.9,3.4c-0.6,1-1.4,1.8-2.4,2.3c-1,0.5-2.2,0.8-3.6,0.8
				c-2.2,0-4-0.7-5.3-2C130.2,195.3,129.5,193.5,129.5,191.2z"/>
			<path class="st9" d="M147.8,198.3v-21.9h13v2.6h-10.6v6.7h9.9v2.6h-9.9v7.4h11v2.6H147.8z"/>
			<path class="st9" d="M165.1,198.3v-21.9h2.4v19.3h8.8v2.6H165.1z"/>
			<path class="st9" d="M191.7,176.4h2.4V189c0,2.1-0.2,3.9-0.6,5.2c-0.4,1.4-1.2,2.4-2.3,3.2c-1.1,0.8-2.5,1.2-4.2,1.2
				c-2.4,0-4.1-0.7-5.3-2.1c-1.2-1.4-1.8-3.9-1.8-7.5v-12.6h2.4V189c0,2,0.2,3.4,0.5,4.3c0.3,0.9,0.8,1.6,1.5,2
				c0.7,0.5,1.6,0.7,2.6,0.7c1.7,0,2.9-0.5,3.7-1.4c0.8-1,1.1-2.8,1.1-5.6V176.4z"/>
			<path class="st9" d="M198.7,198.3v-21.9h6.7c1.4,0,2.4,0.2,3.2,0.6c0.8,0.4,1.4,1.1,2,2c0.5,0.9,0.8,1.9,0.8,3
				c0,1-0.2,1.9-0.7,2.7c-0.4,0.8-1.1,1.5-1.9,1.9c1,0.4,1.9,1,2.5,1.9c0.6,0.9,0.9,2,0.9,3.4c0,1.3-0.3,2.5-0.8,3.5
				c-0.5,1-1.3,1.7-2.2,2.2c-0.9,0.5-2.1,0.7-3.7,0.7H198.7z M201.1,185.6h3.9c1,0,1.7-0.1,2.2-0.2c0.6-0.2,1.1-0.6,1.4-1.1
				c0.3-0.5,0.5-1.2,0.5-2c0-0.8-0.2-1.4-0.5-2c-0.3-0.5-0.7-0.9-1.2-1.1c-0.5-0.2-1.4-0.3-2.7-0.3h-3.6V185.6z M201.1,195.7h4.5
				c1,0,1.7-0.1,2.2-0.3c0.7-0.3,1.2-0.7,1.5-1.3c0.4-0.6,0.5-1.3,0.5-2.2c0-0.8-0.2-1.5-0.5-2.1c-0.3-0.6-0.8-1-1.4-1.3
				c-0.6-0.3-1.5-0.4-2.7-0.4h-4.2V195.7z"/>
			<path class="st9" d="M216.3,198.3v-21.9h13v2.6h-10.6v6.7h9.9v2.6h-9.9v7.4h11v2.6H216.3z"/>
		</g>
		<g>
			<path class="st9" d="M110.7,226.3l5.1-16.2h1.9l5.4,16.2h-2l-1.5-4.9H114l-1.4,4.9H110.7z M114.5,219.7h4.5l-1.4-4.5
				c-0.4-1.4-0.7-2.5-0.9-3.3c-0.2,1-0.4,2.1-0.7,3.1L114.5,219.7z"/>
			<path class="st9" d="M124.5,221.1l1.7-0.2c0.1,0.9,0.3,1.6,0.6,2.1c0.3,0.5,0.8,0.9,1.3,1.2c0.6,0.3,1.2,0.5,2,0.5
				c1,0,1.9-0.3,2.4-0.8c0.6-0.5,0.9-1.2,0.9-2c0-0.5-0.1-0.9-0.3-1.2c-0.2-0.4-0.5-0.6-0.9-0.9c-0.4-0.2-1.3-0.5-2.7-1
				c-1.2-0.4-2.1-0.7-2.7-1.1c-0.5-0.4-0.9-0.9-1.2-1.4c-0.3-0.6-0.4-1.2-0.4-2c0-1.3,0.4-2.4,1.3-3.2c0.8-0.8,2-1.2,3.4-1.2
				c1,0,1.8,0.2,2.6,0.6c0.7,0.4,1.3,0.9,1.7,1.7c0.4,0.7,0.6,1.6,0.7,2.6l-1.7,0.2c-0.1-1.1-0.4-1.8-0.9-2.3
				c-0.5-0.5-1.3-0.8-2.3-0.8c-1,0-1.7,0.2-2.3,0.7c-0.5,0.4-0.8,1-0.8,1.7c0,0.7,0.2,1.2,0.6,1.5c0.4,0.4,1.2,0.7,2.6,1.1
				c1.3,0.4,2.2,0.7,2.8,0.9c0.8,0.4,1.4,1,1.8,1.6c0.4,0.7,0.6,1.5,0.6,2.4c0,0.9-0.2,1.8-0.6,2.5c-0.4,0.8-1,1.3-1.8,1.7
				c-0.7,0.4-1.6,0.6-2.7,0.6c-1.6,0-2.9-0.5-3.9-1.5C125,224.1,124.5,222.8,124.5,221.1z"/>
			<path class="st9" d="M137.5,218.4c0-2.8,0.6-4.9,1.8-6.4c1.2-1.5,2.7-2.2,4.5-2.2c1.2,0,2.2,0.3,3.2,1c1,0.7,1.7,1.6,2.3,2.9
				c0.6,1.3,0.8,2.8,0.8,4.5c0,2.4-0.5,4.3-1.6,5.9c-1.2,1.7-2.8,2.5-4.7,2.5c-2,0-3.5-0.9-4.7-2.6
				C138,222.5,137.5,220.6,137.5,218.4z M139.3,218.5c0,2,0.4,3.5,1.3,4.6c0.9,1.1,1.9,1.6,3.2,1.6c1.3,0,2.4-0.6,3.2-1.7
				c0.9-1.1,1.3-2.7,1.3-4.9c0-1.4-0.2-2.6-0.7-3.7c-0.3-0.8-0.9-1.5-1.6-2c-0.7-0.5-1.5-0.8-2.3-0.8c-1.3,0-2.4,0.6-3.3,1.7
				C139.7,214.5,139.3,216.2,139.3,218.5z"/>
			<path class="st9" d="M162.4,220.6l1.8,0.5c-0.4,1.8-1.1,3.2-2,4.1c-1,0.9-2.2,1.3-3.6,1.3c-1.2,0-2.3-0.3-3.1-0.9
				c-0.9-0.6-1.6-1.6-2.1-2.9c-0.6-1.3-0.8-2.9-0.8-4.7c0-1.8,0.3-3.3,0.8-4.5c0.6-1.2,1.3-2.2,2.3-2.8s2-0.9,3.2-0.9
				c1.3,0,2.4,0.4,3.3,1.2c0.9,0.8,1.6,2,1.9,3.5l-1.7,0.5c-0.6-2.2-1.8-3.4-3.5-3.4c-0.9,0-1.6,0.2-2.3,0.7
				c-0.6,0.5-1.2,1.2-1.6,2.1c-0.4,1-0.6,2.2-0.6,3.6c0,2.2,0.4,3.9,1.2,5c0.8,1.1,1.8,1.7,3.1,1.7c1,0,1.8-0.3,2.5-1
				C161.7,223.1,162.1,222,162.4,220.6z"/>
			<path class="st9" d="M167.2,226.3v-16.2h1.8v16.2H167.2z"/>
			<path class="st9" d="M171.1,226.3l5.1-16.2h1.9l5.4,16.2h-2l-1.5-4.9h-5.6l-1.4,4.9H171.1z M174.9,219.7h4.5l-1.4-4.5
				c-0.4-1.4-0.7-2.5-0.9-3.3c-0.2,1-0.4,2.1-0.7,3.1L174.9,219.7z"/>
			<path class="st9" d="M194.9,220.6l1.8,0.5c-0.4,1.8-1.1,3.2-2,4.1c-1,0.9-2.2,1.3-3.6,1.3c-1.2,0-2.3-0.3-3.1-0.9
				c-0.9-0.6-1.6-1.6-2.1-2.9c-0.6-1.3-0.8-2.9-0.8-4.7c0-1.8,0.3-3.3,0.8-4.5c0.6-1.2,1.3-2.2,2.3-2.8c0.9-0.6,2-0.9,3.2-0.9
				c1.3,0,2.4,0.4,3.3,1.2c0.9,0.8,1.6,2,1.9,3.5l-1.7,0.5c-0.6-2.2-1.8-3.4-3.5-3.4c-0.9,0-1.6,0.2-2.3,0.7
				c-0.6,0.5-1.2,1.2-1.6,2.1c-0.4,1-0.6,2.2-0.6,3.6c0,2.2,0.4,3.9,1.2,5c0.8,1.1,1.8,1.7,3.1,1.7c1,0,1.8-0.3,2.5-1
				C194.2,223.1,194.7,222,194.9,220.6z"/>
			<path class="st9" d="M199.8,226.3v-16.2h1.8v16.2H199.8z"/>
			<path class="st9" d="M204.6,218.4c0-2.8,0.6-4.9,1.8-6.4c1.2-1.5,2.7-2.2,4.5-2.2c1.2,0,2.2,0.3,3.2,1c1,0.7,1.7,1.6,2.3,2.9
				c0.6,1.3,0.8,2.8,0.8,4.5c0,2.4-0.5,4.3-1.6,5.9c-1.2,1.7-2.8,2.5-4.7,2.5c-2,0-3.5-0.9-4.7-2.6
				C205.2,222.5,204.6,220.6,204.6,218.4z M206.4,218.5c0,2,0.4,3.5,1.3,4.6c0.9,1.1,1.9,1.6,3.2,1.6c1.3,0,2.4-0.6,3.2-1.7
				c0.9-1.1,1.3-2.7,1.3-4.9c0-1.4-0.2-2.6-0.7-3.7c-0.3-0.8-0.9-1.5-1.6-2c-0.7-0.5-1.5-0.8-2.3-0.8c-1.3,0-2.4,0.6-3.3,1.7
				C206.9,214.5,206.4,216.2,206.4,218.5z M209.4,209l1.2-3.1h2.1l-2,3.1H209.4z"/>
			<path class="st9" d="M220,226.3v-16.2h1.8l7,12.7v-12.7h1.7v16.2h-1.8l-7-12.7v12.7H220z"/>
		</g>
		<g>
			<path class="st9" d="M111.1,247.7v-14.5h8.6v1.7h-7v4.4h6.6v1.7h-6.6v4.9h7.3v1.7H111.1z"/>
			<path class="st9" d="M122.1,243.1l1.5-0.2c0.1,0.8,0.3,1.4,0.5,1.9c0.3,0.4,0.7,0.8,1.2,1.1c0.5,0.3,1.1,0.4,1.8,0.4
				c0.9,0,1.7-0.2,2.2-0.7c0.5-0.5,0.8-1,0.8-1.8c0-0.4-0.1-0.8-0.3-1.1c-0.2-0.3-0.5-0.6-0.8-0.8c-0.4-0.2-1.2-0.5-2.5-0.9
				c-1.1-0.3-1.9-0.7-2.4-1c-0.5-0.3-0.8-0.8-1.1-1.3c-0.3-0.5-0.4-1.1-0.4-1.8c0-1.2,0.4-2.1,1.1-2.9c0.8-0.7,1.8-1.1,3.1-1.1
				c0.9,0,1.7,0.2,2.3,0.5c0.7,0.3,1.2,0.8,1.5,1.5c0.4,0.7,0.6,1.4,0.6,2.3l-1.5,0.1c-0.1-0.9-0.4-1.6-0.8-2.1
				c-0.5-0.5-1.2-0.7-2-0.7c-0.9,0-1.6,0.2-2,0.6c-0.5,0.4-0.7,0.9-0.7,1.5c0,0.6,0.2,1,0.5,1.4c0.3,0.3,1.1,0.6,2.3,1
				c1.2,0.3,2,0.6,2.5,0.8c0.7,0.4,1.3,0.9,1.6,1.5s0.6,1.3,0.6,2.2c0,0.8-0.2,1.6-0.6,2.3c-0.4,0.7-0.9,1.2-1.6,1.6
				c-0.7,0.4-1.5,0.5-2.4,0.5c-1.5,0-2.6-0.4-3.5-1.3C122.6,245.8,122.1,244.6,122.1,243.1z"/>
			<path class="st9" d="M134.2,247.7v-14.5h4.5c1.1,0,1.8,0.1,2.3,0.3c0.7,0.3,1.2,0.7,1.6,1.4c0.4,0.7,0.6,1.5,0.6,2.5
				c0,1.3-0.3,2.4-1,3.2c-0.7,0.8-1.8,1.2-3.4,1.2h-3v5.9H134.2z M135.7,240.2h3.1c1,0,1.7-0.2,2.1-0.7c0.4-0.4,0.7-1.1,0.7-2
				c0-0.6-0.1-1.1-0.3-1.5c-0.2-0.4-0.5-0.7-0.8-0.8s-0.9-0.2-1.7-0.2h-3V240.2z"/>
			<path class="st9" d="M143.2,247.7l4.6-14.5h1.7l4.9,14.5h-1.8l-1.4-4.4h-5l-1.3,4.4H143.2z M146.6,241.8h4l-1.2-4
				c-0.4-1.2-0.7-2.2-0.8-3c-0.2,0.9-0.4,1.8-0.7,2.8L146.6,241.8z"/>
			<path class="st9" d="M156,247.7v-14.5h1.6l6.2,11.4v-11.4h1.5v14.5h-1.6l-6.2-11.4v11.4H156z M158.1,232.3c0-0.7,0.2-1.3,0.5-1.7
				c0.3-0.4,0.7-0.6,1.2-0.6c0.3,0,0.8,0.2,1.4,0.5c0.3,0.2,0.6,0.3,0.8,0.3c0.2,0,0.3-0.1,0.4-0.2c0.1-0.1,0.2-0.3,0.2-0.7h1.1
				c0,0.8-0.2,1.3-0.5,1.7c-0.3,0.4-0.7,0.6-1.1,0.6c-0.3,0-0.8-0.2-1.3-0.6c-0.4-0.2-0.6-0.4-0.8-0.4c-0.2,0-0.3,0.1-0.4,0.2
				c-0.1,0.2-0.2,0.4-0.2,0.7H158.1z"/>
			<path class="st9" d="M168.1,240.7c0-2.5,0.5-4.4,1.6-5.7c1.1-1.3,2.4-2,4.1-2c1,0,2,0.3,2.9,0.9c0.9,0.6,1.5,1.5,2,2.6
				c0.5,1.1,0.8,2.5,0.8,4c0,2.1-0.5,3.9-1.5,5.2c-1.1,1.5-2.5,2.2-4.2,2.2c-1.8,0-3.2-0.8-4.2-2.3
				C168.6,244.3,168.1,242.7,168.1,240.7z M169.7,240.7c0,1.8,0.4,3.2,1.2,4.2c0.8,1,1.7,1.5,2.9,1.5c1.2,0,2.1-0.5,2.9-1.5
				c0.8-1,1.2-2.5,1.2-4.4c0-1.2-0.2-2.4-0.6-3.3c-0.3-0.8-0.8-1.4-1.4-1.8c-0.6-0.5-1.3-0.7-2-0.7c-1.2,0-2.2,0.5-2.9,1.5
				C170.1,237.1,169.7,238.7,169.7,240.7z"/>
			<path class="st9" d="M181.9,247.7v-14.5h1.6V246h5.8v1.7H181.9z"/>
			<path class="st9" d="M190.4,247.7l4.6-14.5h1.7l4.9,14.5h-1.8l-1.4-4.4h-5l-1.3,4.4H190.4z M193.8,241.8h4l-1.2-4
				c-0.4-1.2-0.7-2.2-0.8-3c-0.2,0.9-0.4,1.8-0.7,2.8L193.8,241.8z"/>
		</g>
		<g>
			<path class="st9" d="M209.4,248.1v-14.3h4.1c1,0,1.8,0.1,2.3,0.3c0.7,0.2,1.3,0.6,1.8,1.2c0.5,0.6,0.9,1.4,1.2,2.3
				c0.3,0.9,0.4,2,0.4,3.3c0,1.6-0.2,3-0.7,4.1s-1.1,1.9-1.8,2.4c-0.7,0.5-1.7,0.7-2.9,0.7H209.4z M211,246.4h2.5
				c1,0,1.8-0.2,2.3-0.5c0.5-0.3,0.9-0.9,1.2-1.6c0.4-1,0.6-2.1,0.6-3.5c0-1.5-0.2-2.6-0.6-3.4c-0.4-0.8-0.9-1.4-1.5-1.7
				c-0.4-0.2-1.1-0.3-2-0.3H211V246.4z"/>
			<path class="st9" d="M221.8,248.1v-14.3h8.5v1.7h-6.9v4.4h6.5v1.7h-6.5v4.9h7.2v1.7H221.8z"/>
		</g>
		<g>
			<path class="st9" d="M111.2,269v-14.6h1.6v12.9h5.9v1.7H111.2z"/>
			<path class="st9" d="M128.9,254.4h1.6v8.4c0,1.4-0.1,2.6-0.4,3.5c-0.3,0.9-0.8,1.6-1.5,2.1c-0.7,0.5-1.6,0.8-2.8,0.8
				c-1.6,0-2.8-0.5-3.5-1.4c-0.8-0.9-1.2-2.6-1.2-5v-8.4h1.6v8.4c0,1.3,0.1,2.3,0.3,2.9c0.2,0.6,0.5,1,1,1.3c0.5,0.3,1,0.5,1.7,0.5
				c1.1,0,1.9-0.3,2.5-1c0.5-0.6,0.8-1.9,0.8-3.7V254.4z"/>
			<path class="st9" d="M133.6,269v-14.6h4.5c0.9,0,1.6,0.1,2.2,0.4c0.5,0.3,1,0.7,1.3,1.3c0.3,0.6,0.5,1.3,0.5,2
				c0,0.7-0.1,1.3-0.4,1.8c-0.3,0.5-0.7,1-1.2,1.3c0.7,0.3,1.2,0.7,1.6,1.3c0.4,0.6,0.6,1.4,0.6,2.2c0,0.9-0.2,1.7-0.5,2.3
				s-0.8,1.2-1.4,1.5c-0.6,0.3-1.4,0.5-2.5,0.5H133.6z M135.1,260.6h2.6c0.7,0,1.2,0,1.4-0.1c0.4-0.1,0.7-0.4,1-0.7
				c0.2-0.3,0.3-0.8,0.3-1.3c0-0.5-0.1-1-0.3-1.3c-0.2-0.3-0.5-0.6-0.8-0.7c-0.3-0.1-0.9-0.2-1.8-0.2h-2.4V260.6z M135.1,267.3h3
				c0.7,0,1.1-0.1,1.5-0.2c0.5-0.2,0.8-0.5,1-0.9c0.2-0.4,0.4-0.9,0.4-1.5c0-0.6-0.1-1-0.3-1.4c-0.2-0.4-0.5-0.7-0.9-0.8
				c-0.4-0.2-1-0.3-1.8-0.3h-2.8V267.3z"/>
			<path class="st9" d="M145.3,269v-14.6h5.3c1.1,0,1.9,0.1,2.5,0.4c0.5,0.3,1,0.7,1.3,1.4c0.3,0.6,0.5,1.4,0.5,2.2
				c0,1.1-0.3,2-0.9,2.7c-0.6,0.7-1.4,1.1-2.5,1.3c0.4,0.3,0.8,0.5,1,0.8c0.5,0.6,0.9,1.2,1.2,1.9l2.1,4h-2l-1.6-3
				c-0.6-1.2-1.1-2-1.4-2.4c-0.3-0.4-0.6-0.7-0.9-0.8c-0.3-0.1-0.7-0.2-1.2-0.2h-1.8v6.5H145.3z M146.8,260.9h3.4
				c0.7,0,1.3-0.1,1.7-0.3c0.4-0.2,0.7-0.5,0.9-0.8c0.2-0.4,0.3-0.8,0.3-1.3c0-0.7-0.2-1.3-0.6-1.7c-0.4-0.4-1.1-0.6-1.9-0.6h-3.8
				V260.9z"/>
			<path class="st9" d="M158.1,269v-14.6h1.6V269H158.1z"/>
			<path class="st9" d="M171.5,263.9l1.6,0.5c-0.4,1.6-1,2.9-1.8,3.7c-0.9,0.8-1.9,1.2-3.2,1.2c-1.1,0-2.1-0.3-2.8-0.8
				c-0.8-0.5-1.4-1.4-1.9-2.6c-0.5-1.2-0.8-2.6-0.8-4.2c0-1.6,0.3-3,0.8-4.1c0.5-1.1,1.2-2,2-2.5c0.9-0.6,1.8-0.9,2.9-0.9
				c1.2,0,2.1,0.4,3,1.1c0.8,0.7,1.4,1.8,1.7,3.2l-1.6,0.4c-0.5-2-1.6-3-3.2-3c-0.8,0-1.5,0.2-2.1,0.6c-0.6,0.4-1.1,1-1.4,1.9
				c-0.3,0.9-0.5,2-0.5,3.3c0,2,0.4,3.5,1.1,4.5c0.7,1,1.6,1.5,2.8,1.5c0.9,0,1.6-0.3,2.2-0.9C170.8,266.1,171.3,265.2,171.5,263.9z
				"/>
			<path class="st9" d="M174.2,269l4.6-14.6h1.7l4.9,14.6h-1.8l-1.4-4.4h-5l-1.3,4.4H174.2z M177.7,263h4.1l-1.2-4
				c-0.4-1.2-0.7-2.2-0.8-3c-0.2,0.9-0.4,1.9-0.7,2.8L177.7,263z"/>
			<path class="st9" d="M187.1,269v-14.6h1.6l6.3,11.5v-11.5h1.5V269h-1.6l-6.3-11.5V269H187.1z"/>
			<path class="st9" d="M202.8,269v-12.9h-3.9v-1.7h9.5v1.7h-4V269H202.8z"/>
			<path class="st9" d="M210.5,269v-14.6h8.6v1.7h-7.1v4.5h6.6v1.7h-6.6v5h7.3v1.7H210.5z"/>
			<path class="st9" d="M221.6,264.3l1.5-0.2c0.1,0.8,0.3,1.4,0.5,1.9c0.3,0.4,0.7,0.8,1.2,1.1c0.5,0.3,1.1,0.4,1.8,0.4
				c0.9,0,1.7-0.2,2.2-0.7c0.5-0.5,0.8-1.1,0.8-1.8c0-0.4-0.1-0.8-0.3-1.1c-0.2-0.3-0.5-0.6-0.9-0.8c-0.4-0.2-1.2-0.5-2.5-0.9
				c-1.1-0.3-1.9-0.7-2.4-1c-0.5-0.3-0.8-0.8-1.1-1.3c-0.3-0.5-0.4-1.1-0.4-1.8c0-1.2,0.4-2.1,1.1-2.9c0.8-0.7,1.8-1.1,3.1-1.1
				c0.9,0,1.7,0.2,2.3,0.5c0.7,0.4,1.2,0.9,1.6,1.5c0.4,0.7,0.6,1.4,0.6,2.3l-1.5,0.1c-0.1-0.9-0.4-1.7-0.9-2.1
				c-0.5-0.5-1.2-0.7-2.1-0.7c-0.9,0-1.6,0.2-2,0.6c-0.5,0.4-0.7,0.9-0.7,1.6c0,0.6,0.2,1,0.5,1.4c0.3,0.3,1.1,0.7,2.3,1
				c1.2,0.3,2,0.6,2.5,0.8c0.7,0.4,1.3,0.9,1.7,1.5c0.4,0.6,0.6,1.3,0.6,2.2c0,0.8-0.2,1.6-0.6,2.3c-0.4,0.7-0.9,1.2-1.6,1.6
				c-0.7,0.4-1.5,0.5-2.4,0.5c-1.5,0-2.7-0.4-3.5-1.3C222.1,267.1,221.6,265.9,221.6,264.3z"/>
		</g>
	</g>
</g>
<g id="Capa_2">
</g>
</svg>
