<?xml version="1.0" standalone="no"?>
<!DOCTYPE svg PUBLIC "-//W3C//DTD SVG 20010904//EN"
 "http://www.w3.org/TR/2001/REC-SVG-20010904/DTD/svg10.dtd">
<svg version="1.0" xmlns="http://www.w3.org/2000/svg"
 width="1536.000000pt" height="1024.000000pt" viewBox="0 0 1536.000000 1024.000000"
 preserveAspectRatio="xMidYMid meet">

<g transform="translate(0.000000,1024.000000) scale(0.100000,-0.100000)"
fill="#000000" stroke="none">
<path d="M5280 6104 c0 -784 -4 -1227 -11 -1307 -32 -352 -155 -556 -401 -666
-239 -106 -611 -77 -918 72 -47 22 -93 44 -103 49 -14 6 -46 -35 -189 -250
-94 -141 -193 -286 -220 -321 -26 -35 -48 -74 -48 -86 0 -85 457 -290 774
-348 107 -19 155 -22 406 -22 324 0 402 11 628 84 244 80 407 175 562 331 187
186 294 393 377 727 l27 108 3 1408 4 1407 -446 0 -445 0 0 -1186z"/>
<path d="M10570 7122 l0 -167 67 -18 c100 -26 191 -75 253 -137 67 -66 103
-132 132 -237 19 -70 21 -117 28 -473 5 -269 11 -408 20 -435 39 -126 140
-244 271 -317 46 -26 96 -50 112 -53 15 -4 27 -10 27 -14 0 -3 -28 -15 -61
-25 -76 -24 -193 -99 -243 -157 -44 -52 -93 -143 -113 -214 -11 -37 -17 -148
-23 -430 -9 -472 -16 -505 -135 -633 -62 -67 -150 -118 -262 -152 l-73 -22 0
-165 0 -166 101 7 c467 32 788 212 914 513 47 112 55 183 61 558 6 418 13 461
83 533 53 54 85 70 186 88 l85 16 0 242 0 242 -72 12 c-101 17 -174 57 -215
116 -63 92 -72 166 -73 591 -1 369 -9 444 -59 552 -86 182 -217 304 -433 399
-142 63 -290 95 -500 108 l-78 4 0 -166z"/>
<path d="M8352 5690 c-65 -82 -71 -102 -188 -640 -9 -41 -36 -129 -60 -195
-86 -240 -108 -362 -102 -567 4 -163 12 -180 130 -293 144 -139 262 -223 436
-310 289 -144 578 -203 942 -192 279 8 474 44 691 128 69 27 79 34 79 55 0 14
-16 96 -35 182 -19 86 -47 220 -64 297 -32 153 -45 195 -61 195 -6 0 -38 -14
-71 -30 -259 -131 -638 -159 -920 -69 -185 59 -391 194 -515 337 -173 201
-260 421 -271 682 -6 149 3 230 41 361 32 109 22 127 -32 59z"/>
<path d="M6380 5260 c0 -126 2 -230 5 -230 2 0 14 18 25 40 38 75 135 126 298
156 104 19 122 24 105 31 -26 9 -12 21 33 28 71 10 51 31 -27 27 -121 -6 -267
46 -373 133 -31 25 -58 45 -61 45 -3 0 -5 -103 -5 -230z"/>
</g>
</svg>
