<svg xmlns="http://www.w3.org/2000/svg" xmlns:xlink="http://www.w3.org/1999/xlink" width="179.042" height="21.77" viewBox="0 0 179.042 21.77"><defs><style>.a{fill:#7c932e;}.b{clip-path:url(#a);}</style><clipPath id="a"><rect class="a" width="179.042" height="21.77"/></clipPath></defs><g transform="translate(-68 -361.199)"><g transform="translate(68 361.199)"><g class="b"><g transform="translate(0 0)"><g class="b"><path class="a" d="M166.968,384.082a.643.643,0,0,1-.641-.642v-7.494a.643.643,0,0,1,.641-.642h.843a2.206,2.206,0,0,1,1.15.391l5.686,4.371a.883.883,0,0,0,1.017,0l5.7-4.372a2.211,2.211,0,0,1,1.15-.391h.848a.644.644,0,0,1,.641.642v7.494a.644.644,0,0,1-.641.642h-1.282a.643.643,0,0,1-.641-.642v-5.023c0-.353-.228-.464-.506-.247l-5.271,4.114a.864.864,0,0,1-1.01,0l-5.253-4.112c-.278-.217-.5-.107-.5.246v5.023a.644.644,0,0,1-.642.642Z" transform="translate(-129.855 -370.072)"/><path class="a" d="M267.6,380.234a.643.643,0,0,0-.641.641v2.565a.643.643,0,0,1-.642.642h-1.281a.644.644,0,0,1-.642-.642v-7.494a.644.644,0,0,1,.642-.642h9.982c.353,0,.929.021,1.281.047a14,14,0,0,1,3.3.6,2.005,2.005,0,0,1,1.425,1.8,1.944,1.944,0,0,1-1.127,1.624,6.691,6.691,0,0,1-2.937.841l4.056,3.451c.268.228.2.415-.154.415h-1.5a2.076,2.076,0,0,1-1.135-.409l-3.652-3.029a2.071,2.071,0,0,0-1.135-.41Zm-.641-1.923a.643.643,0,0,0,.641.641h7.418c.353,0,.929-.019,1.282-.043a5.4,5.4,0,0,0,1.382-.269.976.976,0,0,0,.7-.88.959.959,0,0,0-.7-.87,5.293,5.293,0,0,0-2.022-.3H267.6a.643.643,0,0,0-.641.641Z" transform="translate(-191.547 -370.072)"/><path class="a" d="M332.153,381.293c.331.124.359.383.063.576a13.249,13.249,0,0,1-3.139,1.468,19.752,19.752,0,0,1-5.173.619,16.855,16.855,0,0,1-7.113-1.3q-2.794-1.3-2.792-3.335,0-2.012,2.793-3.335a16.645,16.645,0,0,1,7.113-1.323,20.369,20.369,0,0,1,4.876.54,9.806,9.806,0,0,1,3.532,1.543l-1.432.537a1.561,1.561,0,0,1-1.158-.093,9.3,9.3,0,0,0-2.119-.845,15.775,15.775,0,0,0-3.692-.4,12.44,12.44,0,0,0-5.209.953q-2.06.955-2.061,2.4t2.071,2.413a12.329,12.329,0,0,0,5.2.963,14.224,14.224,0,0,0,3.854-.471,8.5,8.5,0,0,0,2.935-1.453Z" transform="translate(-222.751 -369.665)"/><path class="a" d="M364.966,384.082c-.354,0-.444-.21-.2-.465l7.442-7.847a1.712,1.712,0,0,1,1.082-.465h.325a1.728,1.728,0,0,1,1.085.464l7.5,7.85c.243.255.154.464-.2.464h-1.455a1.711,1.711,0,0,1-1.081-.466l-1.242-1.313a1.717,1.717,0,0,0-1.082-.465h-7.35a1.7,1.7,0,0,0-1.081.467l-1.229,1.309a1.7,1.7,0,0,1-1.079.468Zm5.733-3.87c-.245.254-.155.463.2.463h5.11c.353,0,.443-.21.2-.466l-2.295-2.42a.609.609,0,0,0-.886,0Z" transform="translate(-254.601 -370.072)"/><path class="a" d="M416.659,384.082a.643.643,0,0,1-.641-.642v-7.494a.644.644,0,0,1,.641-.642h.057a2.777,2.777,0,0,1,1.194.328l9.3,5.521c.3.18.551.039.551-.314v-4.894a.644.644,0,0,1,.641-.642h1.242a.645.645,0,0,1,.642.642v7.494a.645.645,0,0,1-.642.642h-.06a2.767,2.767,0,0,1-1.194-.326l-9.295-5.486c-.3-.18-.553-.038-.553.315v4.855a.643.643,0,0,1-.64.642Z" transform="translate(-286.928 -370.072)"/><path class="a" d="M459.348,384.082c-.353,0-.4-.167-.118-.371l9.554-6.754c.289-.2.235-.37-.118-.37h-8.4a.642.642,0,0,1,0-1.283H473.39c.352,0,.4.166.116.368l-9.666,6.759c-.288.2-.236.367.116.367h9.338a.642.642,0,0,1,0,1.283Z" transform="translate(-313.995 -370.072)"/><path class="a" d="M502.723,384.082c-.352,0-.443-.21-.2-.465l7.441-7.847a1.719,1.719,0,0,1,1.083-.465h.326a1.724,1.724,0,0,1,1.084.464l7.5,7.85c.243.255.154.464-.2.464H518.3a1.711,1.711,0,0,1-1.081-.466l-1.244-1.313a1.71,1.71,0,0,0-1.082-.465h-7.35a1.7,1.7,0,0,0-1.079.467l-1.229,1.309a1.7,1.7,0,0,1-1.081.468Zm5.735-3.87c-.245.254-.157.463.2.463h5.11c.352,0,.443-.21.2-.466l-2.3-2.42a.606.606,0,0,0-.885,0Z" transform="translate(-341.261 -370.072)"/><path class="a" d="M.912,0H14.133a.912.912,0,0,1,.912.912v0a.912.912,0,0,1-.912.912H.913A.913.913,0,0,1,0,.912v0A.912.912,0,0,1,.912,0Z" transform="translate(56.03 5.469)"/><path class="a" d="M.913,0H7.121a.912.912,0,0,1,.912.912v0a.913.913,0,0,1-.913.913H.912A.912.912,0,0,1,0,.913v0A.913.913,0,0,1,.913,0Z" transform="translate(56.03 8.804)"/><path class="a" d="M.912,0H14.133a.911.911,0,0,1,.911.911v0a.912.912,0,0,1-.912.912H.912A.912.912,0,0,1,0,.912v0A.912.912,0,0,1,.912,0Z" transform="translate(56.03 12.247)"/><path class="a" d="M545.58,376.421a1.163,1.163,0,1,1,1.163-1.163,1.165,1.165,0,0,1-1.163,1.163m0-2.141a.978.978,0,1,0,.977.978.978.978,0,0,0-.977-.978" transform="translate(-367.701 -369.312)"/><path class="a" d="M546.248,376.774V375.46h.583a.8.8,0,0,1,.267.035.291.291,0,0,1,.146.126.371.371,0,0,1,.055.2.328.328,0,0,1-.091.235.451.451,0,0,1-.279.122.48.48,0,0,1,.1.065.9.9,0,0,1,.145.176l.229.356h-.219l-.173-.273c-.051-.079-.093-.139-.126-.181a.39.39,0,0,0-.088-.088.27.27,0,0,0-.08-.035.585.585,0,0,0-.1-.006h-.2v.583Zm.174-.734h.374a.577.577,0,0,0,.187-.024.2.2,0,0,0,.1-.079.213.213,0,0,0,.035-.118.2.2,0,0,0-.067-.154.318.318,0,0,0-.214-.061h-.416Z" transform="translate(-368.852 -370.17)"/></g></g><g transform="translate(0 0)"><g class="b"><path class="a" d="M72,370.092a1.214,1.214,0,0,1,.8-1.042l7.818-2.435a.6.6,0,0,1,.807.561l.965,17.144a.515.515,0,0,1-.717.554l-9.488-3.16a1.119,1.119,0,0,1-.717-1.042Z" transform="translate(-70.183 -364.586)"/><path class="a" d="M104.974,365.122a.542.542,0,0,0-.733.595l.961,17.144a.581.581,0,0,0,.806.538l15.356-4.952a1,1,0,0,0,.655-1.043l-.936-7.224a1.323,1.323,0,0,0-.879-1.01Z" transform="translate(-90.798 -363.648)"/></g></g></g></g></g></svg>