<svg xmlns="http://www.w3.org/2000/svg" width="988" height="252" viewBox="0 0 988 252">
<g>
<path d="M 139.83 208.50 C126.98,206.06 109.25,198.32 110.33,195.62 C110.58,195.00 114.25,189.41 118.49,183.18 C124.52,174.32 126.55,172.02 127.85,172.57 C138.80,177.28 142.93,178.29 151.50,178.39 C159.46,178.49 161.16,178.18 166.23,175.69 C172.36,172.68 175.04,169.68 177.74,162.82 C179.25,159.00 179.48,152.60 179.78,107.25 L 180.12 56.00 L 214.00 56.00 L 213.98 108.25 C213.96,165.54 213.71,168.61 208.05,180.70 C202.19,193.24 189.10,203.61 174.34,207.42 C165.33,209.74 149.06,210.25 139.83,208.50 ZM 377.20 199.50 L 377.50 193.71 L 381.87 192.43 C384.28,191.72 387.58,189.87 389.21,188.32 C394.86,182.95 395.39,180.93 395.75,163.07 C396.04,148.50 396.32,146.20 398.21,142.83 C400.41,138.93 405.63,134.76 409.92,133.48 L 412.33 132.76 L 409.34 131.50 C405.77,130.00 399.40,124.57 397.73,121.61 C397.01,120.33 396.31,112.45 395.95,101.50 C395.29,81.57 394.77,79.63 388.53,74.16 C386.57,72.44 383.73,70.76 382.23,70.43 C380.73,70.10 378.94,69.66 378.25,69.45 C377.43,69.20 377.00,66.98 377.00,63.03 L 377.00 57.00 L 380.25 57.02 C385.48,57.05 396.43,59.67 401.14,62.03 C406.72,64.82 412.58,70.40 415.31,75.50 C417.19,79.04 417.50,81.64 417.98,98.00 C418.31,109.69 418.96,117.28 419.72,118.62 C421.09,121.03 426.74,124.00 429.94,124.00 C431.98,124.00 432.07,124.39 431.79,132.74 L 431.50 141.47 L 427.67 142.09 C425.48,142.45 422.69,143.85 421.17,145.38 C418.53,148.01 418.49,148.24 417.99,165.27 C417.53,180.67 417.23,183.00 415.16,187.24 C410.22,197.31 399.04,203.73 384.70,204.74 L 376.89 205.29 ZM 320.50 198.58 C310.88,196.36 303.42,193.17 295.49,187.87 C285.02,180.86 276.87,171.16 271.66,160.04 C273.14,163.04 274.82,165.58 276.64,167.48 L 279.50 170.46 L 280.56 163.48 C281.14,159.64 282.80,153.35 284.25,149.50 C285.69,145.65 287.61,139.35 288.51,135.50 C289.41,131.65 290.28,128.05 290.44,127.50 C290.61,126.95 290.77,126.28 290.80,126.00 C290.93,124.71 294.08,118.73 297.44,112.97 C295.81,116.58 294.63,120.51 293.98,124.70 C290.56,146.73 306.21,168.36 329.00,173.10 C336.96,174.76 348.43,173.71 356.06,170.63 C359.58,169.21 362.73,168.38 363.07,168.78 C364.14,170.03 368.25,191.90 367.70,193.35 C367.40,194.11 363.41,195.77 358.83,197.03 C348.44,199.90 329.56,200.66 320.50,198.58 ZM 263.62 204.77 C267.92,204.68 270.00,202.64 269.98,198.60 C269.96,194.57 269.30,193.67 264.50,191.24 C264.33,191.16 264.17,191.07 264.01,190.99 C265.07,191.52 266.24,192.00 267.56,192.45 C271.46,193.79 271.50,193.87 271.80,199.40 L 272.10 205.00 L 266.30 204.91 C265.48,204.90 264.57,204.85 263.62,204.77 ZM 223.90 122.77 C220.45,124.13 220.00,124.69 220.00,127.65 C220.00,130.77 220.72,131.47 223.50,131.10 C224.05,131.03 223.49,131.84 222.25,132.90 C220.88,134.07 220.18,135.52 220.03,137.55 C220.00,136.40 220.00,134.96 220.00,133.15 L 220.00 124.30 L 223.90 122.77 ZM 263.00 190.45 C258.90,188.14 256.61,185.71 255.36,181.07 C255.61,181.69 255.90,182.30 256.25,182.98 C258.02,186.44 260.02,188.72 263.00,190.45 ZM 268.44 151.81 C265.87,143.77 264.75,135.21 265.29,126.54 C264.78,134.84 266.02,143.98 268.44,151.81 ZM 356.77 91.58 C345.94,86.79 334.71,86.31 324.76,89.24 C334.93,86.16 346.08,86.85 356.77,91.58 ZM 305.79 100.67 C305.19,101.28 304.61,101.92 304.05,102.57 C304.34,102.19 304.60,101.88 304.81,101.66 C305.14,101.32 305.46,100.99 305.79,100.67 ZM 221.17 141.89 C221.46,141.97 221.83,142.00 222.28,142.00 C221.82,142.00 221.46,141.99 221.17,141.89 Z" fill="rgba(22,126,126,1)"/>
<path d="M 276.64 167.48 C269.35,159.89 264.34,141.81 265.29,126.54 C267.22,95.63 287.26,71.40 317.15,63.84 C329.14,60.81 347.99,61.54 359.75,65.49 C364.29,67.02 368.00,68.67 368.00,69.17 C368.00,70.28 362.87,93.40 362.54,93.76 C362.41,93.91 359.82,92.92 356.77,91.58 C338.38,83.44 318.61,87.28 304.81,101.66 C301.93,104.66 291.04,123.57 290.80,126.00 C290.77,126.28 290.61,126.95 290.44,127.50 C290.28,128.05 289.41,131.65 288.51,135.50 C287.61,139.35 285.69,145.65 284.25,149.50 C282.80,153.35 281.14,159.64 280.56,163.48 L 279.50 170.46 ZM 255.89 203.55 C249.88,201.89 241.73,197.42 239.92,194.79 C239.14,193.65 237.49,191.59 236.26,190.22 C232.83,186.41 232.01,181.77 232.01,166.22 C232.00,150.78 231.04,146.54 226.88,143.63 C225.60,142.73 223.53,142.00 222.28,142.00 C220.33,142.00 220.00,141.48 220.00,138.41 C220.00,135.92 220.69,134.23 222.25,132.90 C223.49,131.84 224.05,131.03 223.50,131.10 C220.72,131.47 220.00,130.77 220.00,127.65 C220.00,124.69 220.45,124.13 223.90,122.77 C230.79,120.06 231.43,118.07 232.06,97.05 C232.37,86.46 233.11,77.32 233.78,75.76 C238.09,65.63 254.14,57.00 268.68,57.00 L 272.10 57.00 L 271.80 63.10 L 271.50 69.19 L 267.56 70.55 C262.34,72.33 258.94,74.97 256.50,79.10 C254.76,82.05 254.43,84.88 253.99,100.50 C253.58,114.57 253.11,119.15 251.83,121.50 C249.72,125.36 246.49,128.27 241.56,130.76 C237.72,132.69 237.68,132.76 240.04,133.51 C244.85,135.04 249.96,139.29 251.96,143.42 C253.74,147.09 254.00,149.58 254.00,162.85 C254.00,182.55 255.53,186.69 264.50,191.24 C269.30,193.67 269.96,194.57 269.98,198.60 C270.01,204.58 265.44,206.18 255.89,203.55 Z" fill="rgba(53,176,169,1)"/>
<path d="M 466.00 185.00 C466.00,172.24 466.63,168.97 468.50,172.00 C468.92,172.67 469.74,172.67 470.99,172.00 C474.49,170.13 478.72,170.83 480.93,173.63 C484.81,178.57 482.90,189.95 477.92,191.52 C476.77,191.89 474.29,191.90 472.41,191.55 L 469.00 190.91 L 469.00 194.95 C469.00,197.88 468.59,199.00 467.50,199.00 C466.24,199.00 466.00,196.78 466.00,185.00 ZM 478.44 186.78 C480.28,184.16 480.41,181.47 478.90,177.15 C478.07,174.76 477.21,174.00 475.34,174.00 C470.40,174.00 469.00,175.63 469.00,181.34 C469.00,184.23 469.54,187.14 470.20,187.80 C472.19,189.79 476.73,189.23 478.44,186.78 ZM 656.88 194.58 C655.73,193.25 653.73,191.90 652.46,191.58 C644.48,189.58 642.49,170.69 649.66,165.05 C653.40,162.11 659.93,162.27 663.29,165.39 C669.80,171.43 668.77,187.11 661.60,190.95 C659.61,192.01 659.28,192.63 660.13,193.66 C660.75,194.40 662.31,195.00 663.62,195.00 C664.93,195.00 666.00,195.45 666.00,196.00 C666.00,196.55 664.42,197.00 662.49,197.00 C660.03,197.00 658.36,196.28 656.88,194.58 ZM 662.07 185.75 C664.72,181.53 664.42,171.22 661.55,168.06 C659.69,166.00 654.62,165.28 652.40,166.77 C648.45,169.40 647.60,181.95 651.07,186.37 C654.21,190.35 659.36,190.06 662.07,185.75 ZM 492.00 190.71 C488.92,189.15 486.72,182.99 487.60,178.34 C488.77,172.07 496.53,168.88 501.75,172.54 C504.83,174.69 506.43,181.16 504.98,185.56 C503.04,191.43 497.66,193.57 492.00,190.71 ZM 500.96 187.07 C501.53,186.00 502.00,183.50 502.00,181.50 C502.00,176.03 500.51,174.00 496.50,174.00 C492.49,174.00 491.00,176.03 491.00,181.50 C491.00,186.97 492.49,189.00 496.50,189.00 C498.87,189.00 500.25,188.40 500.96,187.07 ZM 511.00 181.58 C511.00,171.97 511.74,169.15 513.50,172.00 C513.92,172.67 514.74,172.67 515.99,172.00 C518.72,170.55 521.00,170.77 521.00,172.50 C521.00,173.32 520.21,174.01 519.25,174.02 C515.44,174.05 514.51,175.75 514.00,183.63 C513.68,188.53 513.04,191.49 512.25,191.75 C511.30,192.07 511.00,189.60 511.00,181.58 ZM 528.57 190.43 C527.42,189.28 527.00,186.85 527.00,181.43 C527.00,175.49 526.70,174.00 525.50,174.00 C524.67,174.00 524.00,173.32 524.00,172.50 C524.00,171.68 524.67,171.00 525.50,171.00 C526.43,171.00 527.00,170.06 527.00,168.50 C527.00,166.94 527.57,166.00 528.50,166.00 C529.43,166.00 530.00,166.94 530.00,168.50 C530.00,170.50 530.50,171.00 532.50,171.00 C534.06,171.00 535.00,171.57 535.00,172.50 C535.00,173.44 534.05,174.00 532.46,174.00 C529.94,174.00 529.92,174.07 530.21,181.25 C530.49,188.33 530.56,188.51 533.25,188.82 C534.82,189.00 536.00,189.75 536.00,190.57 C536.00,192.54 530.58,192.44 528.57,190.43 ZM 540.57 190.43 C539.71,189.56 539.00,187.55 539.00,185.95 C539.00,182.56 541.60,180.56 547.31,179.56 C550.51,178.99 551.07,178.53 550.81,176.69 C550.54,174.79 549.85,174.49 545.55,174.41 C537.35,174.27 539.28,171.05 547.60,171.01 C552.74,170.99 554.00,173.42 554.00,183.33 C554.00,188.10 553.59,192.00 553.08,192.00 C552.58,192.00 552.00,191.49 551.79,190.86 C551.50,190.00 550.87,190.00 549.27,190.86 C546.26,192.47 542.42,192.28 540.57,190.43 ZM 549.80 187.80 C550.46,187.14 551.00,185.54 551.00,184.24 C551.00,182.13 550.61,181.91 547.35,182.19 C543.43,182.52 541.29,184.72 542.31,187.36 C543.05,189.29 548.02,189.58 549.80,187.80 ZM 562.64 191.31 C562.29,190.95 562.00,186.92 562.00,182.33 C562.00,174.67 561.84,174.00 560.00,174.00 C558.90,174.00 558.00,173.51 558.00,172.91 C558.00,172.30 558.90,171.58 560.00,171.29 C561.47,170.90 562.00,169.93 562.00,167.58 C562.00,163.53 563.56,162.00 567.70,162.00 C571.82,162.00 572.02,163.55 568.00,164.35 C565.48,164.85 565.00,165.42 565.00,167.91 C565.00,170.17 565.50,170.94 567.17,171.18 C570.37,171.65 570.72,174.00 567.58,174.00 C565.01,174.00 565.00,174.03 565.00,182.44 C565.00,190.21 564.27,192.94 562.64,191.31 ZM 574.92 189.08 C571.56,185.72 570.96,179.92 573.46,175.07 C575.09,171.92 576.80,171.00 581.00,171.00 C582.56,171.00 584.56,171.28 585.46,171.62 C587.89,172.56 590.00,177.39 590.00,182.03 C590.00,187.33 585.79,192.00 581.00,192.00 C578.85,192.00 576.92,191.07 574.92,189.08 ZM 586.39 183.81 C587.76,178.44 585.48,174.50 581.00,174.50 C576.50,174.50 574.25,178.42 575.61,183.89 C577.42,191.15 584.53,191.09 586.39,183.81 ZM 616.92 189.08 C613.56,185.72 612.96,179.92 615.46,175.07 C617.13,171.85 618.82,170.99 623.33,171.03 C628.88,171.09 632.00,175.04 632.00,182.01 C632.00,187.33 627.79,192.00 623.00,192.00 C620.85,192.00 618.92,191.07 616.92,189.08 ZM 627.04 187.45 C627.75,186.59 628.33,183.92 628.33,181.50 C628.33,179.08 627.75,176.41 627.04,175.55 C625.11,173.23 620.39,173.60 618.56,176.22 C615.06,181.22 617.73,189.00 622.93,189.00 C624.49,189.00 626.34,188.30 627.04,187.45 ZM 683.64 191.31 C683.29,190.95 683.00,186.24 683.00,180.83 C683.00,172.76 683.27,171.00 684.50,171.00 C685.73,171.00 686.00,172.77 686.00,180.94 C686.00,190.05 685.33,193.00 683.64,191.31 ZM 693.00 177.08 C693.00,164.34 693.23,162.00 694.50,162.00 C695.72,162.00 696.01,163.71 696.03,171.25 L 696.07 180.50 L 700.14 175.75 C702.38,173.14 704.84,171.00 705.60,171.00 C707.69,171.00 707.28,172.09 703.56,176.43 L 700.20 180.35 L 704.10 185.52 C708.51,191.36 708.62,191.67 706.38,191.67 C705.49,191.67 703.19,189.49 701.28,186.83 C699.38,184.18 697.43,182.00 696.96,182.00 C696.49,182.00 695.97,184.10 695.80,186.67 C695.63,189.28 694.95,191.53 694.25,191.76 C693.29,192.07 693.00,188.70 693.00,177.08 ZM 595.50 187.75 C595.18,185.96 595.04,179.55 595.21,173.50 C595.45,164.52 595.78,162.50 597.00,162.50 C598.25,162.50 598.55,164.87 598.78,176.75 C599.01,188.80 598.83,191.00 597.57,191.00 C596.69,191.00 595.85,189.69 595.50,187.75 ZM 605.21 181.25 C605.44,173.38 605.79,171.50 607.00,171.50 C608.15,171.50 608.57,173.03 608.81,178.00 C609.21,186.32 608.34,191.00 606.42,191.00 C605.18,191.00 604.98,189.35 605.21,181.25 ZM 673.00 176.50 C673.00,164.28 673.24,162.00 674.50,162.00 C675.76,162.00 676.00,164.28 676.00,176.50 C676.00,188.72 675.76,191.00 674.50,191.00 C673.24,191.00 673.00,188.72 673.00,176.50 ZM 605.69 166.35 C604.27,164.94 605.07,163.00 607.07,163.00 C608.47,163.00 609.04,163.54 608.82,164.67 C608.47,166.51 606.76,167.43 605.69,166.35 ZM 682.70 166.37 C681.13,164.79 682.06,162.87 684.25,163.18 C685.49,163.36 686.50,164.17 686.50,164.99 C686.50,166.58 683.87,167.53 682.70,166.37 ZM 774.00 142.96 C774.00,136.32 773.89,135.99 772.07,136.96 C769.19,138.50 762.76,138.22 760.22,136.44 C756.48,133.82 754.71,129.12 754.71,121.87 C754.71,114.81 757.14,109.06 761.02,106.99 C763.52,105.65 769.64,105.74 772.27,107.14 C773.87,108.00 774.50,108.00 774.79,107.14 C775.00,106.51 776.25,106.00 777.58,106.00 L 780.00 106.00 L 780.00 128.00 L 780.00 150.00 L 777.00 150.00 L 774.00 150.00 L 774.00 142.96 ZM 772.74 131.80 C774.61,130.25 774.46,113.63 772.57,112.06 C770.16,110.06 765.08,110.48 762.68,112.87 C760.85,114.70 760.50,116.19 760.50,122.11 C760.50,128.66 760.71,129.35 763.39,131.66 C766.34,134.20 769.79,134.25 772.74,131.80 ZM 465.39 137.23 C464.75,136.82 464.58,135.65 464.98,134.53 C465.55,132.93 466.45,132.61 469.67,132.84 C476.14,133.31 476.45,132.36 476.83,111.35 L 477.16 93.00 L 479.58 93.00 L 482.00 93.00 L 482.00 112.42 L 482.00 131.85 L 479.41 134.92 C477.13,137.63 476.21,138.00 471.66,137.98 C468.82,137.98 466.00,137.64 465.39,137.23 ZM 490.67 137.33 C490.30,136.97 490.00,126.62 490.00,114.33 L 490.00 92.00 L 493.00 92.00 L 496.00 92.00 L 496.00 100.56 L 496.00 109.11 L 498.22 107.56 C501.77,105.07 508.63,105.54 511.55,108.45 C513.91,110.82 514.00,111.41 514.00,124.45 L 514.00 138.00 L 511.50 138.00 L 509.00 138.00 L 508.99 127.25 C508.98,120.63 508.49,115.54 507.71,114.00 C506.17,110.93 501.85,110.21 498.44,112.45 C496.08,113.99 496.00,114.44 496.00,126.02 C496.00,137.90 495.98,138.00 493.67,138.00 C492.38,138.00 491.03,137.70 490.67,137.33 ZM 527.23 136.77 C518.53,132.58 518.43,111.93 527.09,107.46 C530.77,105.55 536.98,105.60 539.78,107.56 C543.05,109.85 545.00,114.29 545.00,119.45 L 545.00 124.00 L 535.39 124.00 L 525.78 124.00 L 526.43 126.75 C526.78,128.26 528.26,130.55 529.70,131.84 C531.80,133.72 533.03,134.06 535.91,133.58 C542.67,132.44 543.44,132.49 543.76,134.07 C544.45,137.45 532.64,139.38 527.23,136.77 ZM 539.66 118.44 C540.55,116.13 538.39,112.13 535.56,110.84 C532.51,109.46 528.43,111.73 526.95,115.64 C525.54,119.34 526.46,120.00 533.09,120.00 C537.58,120.00 539.21,119.61 539.66,118.44 ZM 552.00 122.00 C552.00,106.43 552.06,106.00 554.09,106.00 C555.31,106.00 556.40,106.80 556.69,107.91 C557.18,109.78 557.22,109.78 559.09,107.91 C561.05,105.95 568.00,105.18 568.00,106.92 C568.00,109.33 566.58,111.00 564.53,111.00 C563.29,111.00 561.08,111.93 559.63,113.07 C557.06,115.10 557.00,115.42 557.00,126.57 L 557.00 138.00 L 554.50 138.00 L 552.00 138.00 L 552.00 122.00 ZM 572.67 137.33 C572.30,136.97 572.00,126.62 572.00,114.33 L 572.00 92.00 L 575.00 92.00 L 578.00 92.00 L 578.00 115.00 L 578.00 138.00 L 575.67 138.00 C574.38,138.00 573.03,137.70 572.67,137.33 ZM 587.71 136.58 C585.08,134.58 584.07,130.01 585.38,125.96 C586.75,121.74 591.61,119.00 597.75,119.00 C601.74,119.00 602.00,118.83 602.00,116.20 C602.00,114.66 601.46,112.86 600.80,112.20 C599.35,110.75 594.09,110.63 590.58,111.97 C588.49,112.76 587.85,112.59 587.00,111.00 C586.13,109.37 586.44,108.83 588.93,107.53 C593.64,105.10 601.34,105.53 604.69,108.41 C607.48,110.80 607.50,110.93 607.83,124.41 C608.15,137.67 608.10,138.00 606.05,138.00 C604.89,138.00 603.68,137.34 603.37,136.52 C602.87,135.22 602.47,135.22 599.95,136.52 C596.41,138.36 590.09,138.39 587.71,136.58 ZM 599.05 132.47 C601.57,131.17 602.00,130.36 602.00,126.97 C602.00,123.00 602.00,123.00 598.00,123.00 C591.48,123.00 587.70,128.55 591.57,132.43 C593.54,134.40 595.31,134.41 599.05,132.47 ZM 615.46 136.75 C615.19,136.06 615.09,128.97 615.24,121.00 C615.49,106.81 615.55,106.49 617.75,106.18 C619.10,105.99 620.25,106.49 620.61,107.42 C621.14,108.80 621.44,108.81 623.32,107.49 C624.49,106.67 627.39,106.00 629.77,106.00 C638.11,106.00 640.41,111.14 639.81,128.50 C639.50,137.49 639.50,137.50 636.75,137.82 L 634.00 138.13 L 634.00 126.50 C634.00,120.10 633.53,114.00 632.96,112.93 C631.68,110.54 626.40,110.33 623.22,112.56 C621.14,114.02 621.00,114.85 621.00,126.06 L 621.00 138.00 L 618.47 138.00 C617.08,138.00 615.72,137.44 615.46,136.75 ZM 666.40 136.10 C660.89,132.74 658.65,127.75 658.17,117.77 C657.67,107.25 659.25,102.09 664.52,96.98 C667.60,93.99 668.75,93.55 674.26,93.24 C679.28,92.96 681.16,93.30 683.86,95.00 C687.04,96.99 687.13,97.20 685.54,98.96 C684.04,100.61 683.58,100.66 681.18,99.41 C675.06,96.22 668.18,98.93 665.38,105.64 C662.10,113.49 664.77,129.20 669.85,131.92 C672.74,133.47 679.28,133.25 681.56,131.53 C684.14,129.58 684.74,129.64 686.00,131.99 C688.69,137.02 673.21,140.26 666.40,136.10 ZM 692.67 137.33 C692.30,136.97 692.00,126.62 692.00,114.33 L 692.00 92.00 L 695.00 92.00 L 698.00 92.00 L 698.00 100.11 C698.00,107.46 698.16,108.14 699.75,107.43 C700.71,107.00 703.62,106.46 706.20,106.23 C710.22,105.87 711.28,106.19 713.45,108.36 C715.93,110.84 716.00,111.27 716.00,124.45 L 716.00 138.00 L 713.50 138.00 L 711.00 138.00 L 711.00 126.72 C711.00,118.13 710.63,114.92 709.44,113.22 C707.60,110.59 703.46,110.29 700.22,112.56 C698.14,114.02 698.00,114.85 698.00,126.06 C698.00,137.90 697.98,138.00 695.67,138.00 C694.38,138.00 693.03,137.70 692.67,137.33 ZM 728.61 135.91 C720.84,129.80 720.30,115.45 727.61,109.04 C730.44,106.55 731.95,106.00 735.90,106.00 C744.42,106.00 749.00,111.60 749.00,122.00 C749.00,132.35 744.41,138.00 736.00,138.00 C732.72,138.00 730.46,137.36 728.61,135.91 ZM 740.83 131.57 C744.34,128.13 744.22,115.79 740.62,112.19 C738.78,110.35 733.68,110.19 731.60,111.91 C727.20,115.57 727.21,127.30 731.63,131.72 C734.25,134.35 738.05,134.28 740.83,131.57 ZM 790.86 136.09 C788.61,134.27 788.48,133.50 788.17,120.09 L 787.85 106.00 L 790.42 106.00 L 793.00 106.00 L 793.01 116.75 C793.03,129.54 794.06,132.36 798.87,132.82 C805.04,133.42 806.00,131.39 806.00,117.78 L 806.00 105.87 L 808.75 106.18 L 811.50 106.50 L 811.50 122.00 C811.50,137.32 811.47,137.50 809.25,137.82 C807.90,138.01 806.75,137.51 806.39,136.58 C805.86,135.20 805.56,135.19 803.68,136.51 C800.64,138.64 793.73,138.41 790.86,136.09 ZM 823.51 135.83 C819.89,132.98 818.00,128.24 818.00,122.00 C818.00,112.09 822.78,106.00 830.56,106.00 C837.87,106.00 842.98,112.26 842.99,121.25 L 843.00 124.00 L 833.07 124.00 L 823.14 124.00 L 824.06 127.20 C824.56,128.96 825.67,131.10 826.52,131.95 C828.34,133.77 836.20,133.91 838.30,132.16 C839.94,130.81 841.00,131.61 841.00,134.19 C841.00,138.36 828.24,139.55 823.51,135.83 ZM 833.93 119.36 C836.61,118.83 837.06,118.33 836.80,116.21 C836.64,114.83 835.24,112.76 833.70,111.62 C831.13,109.70 830.70,109.66 828.22,111.05 C824.81,112.96 822.92,117.71 825.04,119.04 C826.77,120.14 829.56,120.24 833.93,119.36 Z" fill="rgba(112,112,112,1)"/>
</g>
</svg>