<?xml version="1.0" encoding="utf-8"?>
<!-- Generator: Adobe Illustrator 25.0.1, SVG Export Plug-In . SVG Version: 6.00 Build 0)  -->
<svg version="1.1" xmlns="http://www.w3.org/2000/svg" xmlns:xlink="http://www.w3.org/1999/xlink" x="0px" y="0px"
	 viewBox="0 0 1033.8 298.5" style="enable-background:new 0 0 1033.8 298.5;" xml:space="preserve">
<style type="text/css">
	.st0{opacity:0.15;fill:#58B39C;}
	.st1{fill:none;stroke:#000000;stroke-miterlimit:10;}
	.st2{fill:none;stroke:#000000;stroke-width:3;stroke-linecap:round;stroke-linejoin:round;stroke-miterlimit:10;}
	.st3{fill:none;stroke:#000000;stroke-width:4;stroke-linecap:round;stroke-linejoin:round;stroke-miterlimit:10;}
	.st4{fill:none;stroke:#E6007E;stroke-linecap:round;stroke-linejoin:round;stroke-miterlimit:10;}
	.st5{fill:none;stroke:#000000;stroke-width:3;stroke-linecap:round;stroke-miterlimit:10;}
	.st6{fill:#58B39C;}
	.st7{fill:#D61B16;}
	.st8{fill:#007A73;}
	.st9{fill:#FFFFFF;}
	.st10{fill:none;stroke:#000000;stroke-width:3;stroke-miterlimit:10;}
	.st11{fill:none;stroke:#AB223D;stroke-width:11;stroke-miterlimit:10;}
	.st12{fill:none;stroke:#68AF9D;stroke-width:11;stroke-miterlimit:10;}
	.st13{fill:none;stroke:#E4BB58;stroke-width:11;stroke-miterlimit:10;}
	.st14{fill:none;stroke:#85A441;stroke-width:11;stroke-miterlimit:10;}
	.st15{fill:none;stroke:#FFFFFF;stroke-width:6;stroke-miterlimit:10;}
	.st16{fill:none;stroke:#FFFFFF;stroke-width:24;stroke-miterlimit:10;}
	.st17{fill:none;stroke:#E30613;stroke-width:5;stroke-miterlimit:10;}
	.st18{fill:none;stroke:#FFFFFF;stroke-width:20;stroke-miterlimit:10;}
</style>
<g id="Capa_1">
	<g>
		<path class="st18" d="M117.8,220.4c-21.7,0-39.4-17.6-39.4-39.4s39.4-77.6,39.4-77.6s39.4,55.9,39.4,77.6
			C157.2,200.7,141.6,220.4,117.8,220.4z"/>
		<path class="st18" d="M28.4,147.5l-18.4,16v29.7l18.4,14.6l6.7,14.3l-4.7,22.1l23.2,23.7l21-5.3l15,6.4l16.2,19.4l28.3,0.1
			l12.1-18.7l16.5-7.7l20.7,5.1l24-23.5l-4.4-19l7.4-16.7l18.9-17.9v-24l-19-15.4c0,0-74.8-125.5-80.5-133.9
			c-6.4-9.4-17.1-9.1-23.5,0.3C92.5,37.5,28.4,147.5,28.4,147.5z"/>
		<path class="st9" d="M615,134.3V3.8h21.7V112H691v22.3H615z"/>
		<path class="st9" d="M715.5,2.7h21.7V74c0,11.1,0.3,18.3,0.8,21.6c1,5.8,3.3,10.3,6.9,13.5c3.6,3.2,8.4,4.8,14.3,4.8
			c5,0,9.1-1.1,12.3-3.4c3.2-2.2,5.4-5.4,6.5-9.3c1.2-4,1.8-12.5,1.8-25.6V2.7h21.7v69.1c0,17.7-0.9,30.4-2.8,38.3
			c-1.9,7.9-6.1,14.2-12.7,19.1c-6.6,4.9-15.3,7.3-26.2,7.3c-11.3,0-20-2-26.3-6.1c-6.3-4-10.9-9.7-13.7-17.1
			c-2.8-7.3-4.3-20.8-4.3-40.5V2.7z"/>
		<path class="st9" d="M918.7,78c-3.6-5.5-8.6-9.4-15-11.7c4.5-2.5,8.2-6.2,11-11.4c2.8-5.1,4.2-12.8,4.2-19.2
			c0-6.9-1.6-13-4.9-18.5c-3.3-5.4-7.3-9.2-12.1-11.4c-4.8-2.2-13.1-3.2-24.9-3.2h-43.2v131.6h36.7c15.9,0,26.1-0.5,30.4-1.6
			c6.3-1.6,11.7-5.6,16.3-12.3c4.6-6.6,6.9-14.7,6.9-24.3C924.1,88.2,922.3,83.5,918.7,78z M899.1,105.2c-1.7,2.7-3.8,4.5-6.3,5.5
			c-2.5,0.9-8.2,1.4-17.1,1.4h-20.2V85.7v-8.7V55v-5V24.6H868c11.5,0,18.4,0.3,20.9,0.9c2.4,0.6,4.5,2.1,6.2,4.5
			c1.7,2.4,2.6,5.6,2.6,9.5c0,4.4-1,9.8-3.1,12.4c-2.1,2.5-5,4.1-8.7,4.7c-1.9,0.3-6.8,0.4-14.7,0.4v21.9h2c9.4,0,15.5,0.5,18.6,1.6
			c3,1,5.5,3,7.3,5.7c1.8,2.8,2.7,4.3,2.7,8.6C901.6,99,900.8,102.5,899.1,105.2z"/>
		<path class="st9" d="M462.1,62.3c-4.9-3.5-12.8-6.8-23.7-10c-10.4-2.9-17-5.6-19.8-8.1c-2.9-2.4-4.3-5.5-4.3-9
			c0-3.6,1.6-6.7,4.8-9.1c3.2-2.4,7.7-3.7,13.6-3.7c5.9,0,10.4,1.4,13.6,4.2c1.8,1.6,3.2,3.8,4.2,6.7l20-11.5
			c-1.8-4.3-4.4-7.9-7.5-11c-7.1-6.9-17-10.3-29.7-10.3c-8.4,0-15.5,1.5-21.3,4.4c-5.7,2.9-10.2,7.3-13.5,13
			c-3.3,5.7-4.9,12.2-4.9,19.4c0,6.2,1.3,11.9,3.8,17.3c2.5,5.4,6,9.7,10.3,13c4.3,3.3,11.1,6.3,20.4,9.1
			c10.4,3.2,16.9,5.4,19.6,6.8c2.7,1.3,4.7,3.1,6,5.2c1.3,2.1,2,4.6,2,7.6c0,5.1-1.9,9.3-5.7,12.8c-3.8,3.4-8.9,5.2-15.5,5.2
			c-9,0-15.5-3.9-19.5-11.6l-19.7,11.4c7,15.1,19.8,22.7,38.6,22.7c15,0,26-3.9,33-11.7c7-7.8,10.5-17.4,10.5-28.8
			c0-7.9-1.3-14.6-3.9-20.1C470.7,70.4,467,65.8,462.1,62.3z"/>
		<path class="st9" d="M901.9,218.3c-4.9-3.5-12.9-6.9-23.9-10.1c-10.4-3-17.1-5.7-20-8.1c-2.9-2.5-4.4-5.5-4.4-9.1
			c0-3.7,1.6-6.7,4.8-9.2c3.2-2.5,7.7-3.7,13.7-3.7c5.9,0,10.5,1.4,13.7,4.3c1.8,1.6,3.2,3.8,4.3,6.7l20.1-11.6
			c-1.9-4.3-4.4-8-7.6-11.1c-7.2-6.9-17.2-10.4-29.9-10.4c-8.5,0-15.6,1.5-21.4,4.4c-5.8,3-10.3,7.3-13.6,13.1
			c-3.3,5.8-4.9,12.3-4.9,19.5c0,6.2,1.3,12,3.8,17.4c2.6,5.4,6,9.7,10.4,13.1c4.3,3.3,11.2,6.4,20.5,9.2c10.4,3.2,17,5.5,19.7,6.8
			c2.7,1.4,4.7,3.1,6.1,5.2c1.3,2.1,2,4.7,2,7.7c0,5.1-1.9,9.4-5.7,12.9c-3.8,3.5-9,5.2-15.6,5.2c-9.1,0-15.6-3.9-19.7-11.7
			l-19.8,11.4c7,15.2,20,22.9,38.8,22.9c15.1,0,26.2-3.9,33.2-11.8c7.1-7.8,10.6-17.5,10.6-29c0-8-1.3-14.7-3.9-20.3
			C910.6,226.4,906.8,221.8,901.9,218.3z"/>
		<path class="st9" d="M510.2,290.1V155.3h21.7l45.2,90v-90h20.8v134.8h-22.4L531,202.2v87.9H510.2z"/>
		<path class="st9" d="M652.8,290.7v-112H620v-22.8h87.8v22.8h-32.7v112H652.8z"/>
		<polygon class="st9" points="336.1,0.4 312.2,0.4 268.8,136.5 292.7,136.5 324,32.2 356.4,136.5 380.8,136.5 		"/>
		<polygon class="st9" points="775.8,155.9 752,155.9 708.5,292 732.5,292 763.7,187.7 796.2,292 820.6,292 		"/>
		<polygon class="st9" points="313.3,291.4 337.2,291.4 380.6,155.3 356.7,155.3 325.4,259.6 293,155.3 268.6,155.3 		"/>
		<polygon class="st9" points="951.8,2.8 951.8,134.4 1033.8,134.4 1033.8,112.1 973.5,112.1 973.5,78.4 1015.3,78.4 1015.3,56.2 
			973.5,56.2 973.5,25 1033.8,25 1033.8,2.8 		"/>
		<polygon class="st9" points="504.7,2.7 504.7,134.3 586.8,134.3 586.8,112 526.5,112 526.5,78.3 568.3,78.3 568.3,56.1 
			526.5,56.1 526.5,24.9 586.8,24.9 586.8,2.7 		"/>
		<polygon class="st9" points="401.8,154.6 401.8,291.4 487,291.4 487,268.2 424.3,268.2 424.3,233.2 468.5,233.2 468.5,210.1 
			424.3,210.1 424.3,177.7 487,177.7 487,154.6 		"/>
	</g>
</g>
<g id="Capa_2">
</g>
</svg>
