<svg xmlns="http://www.w3.org/2000/svg" width="34.145" height="32.172" viewBox="0 0 34.145 32.172"><defs><style>.a{fill:#7c932e;}</style></defs><path class="a" d="M93.5,113.939a2.22,2.22,0,0,0-.554-1.311Q80.8,100.522,68.689,88.375c-.347-.347-.523-.375-.886-.012-1.748,1.779-3.532,3.524-5.3,5.28v.133c.25.078.379.3.55.468q12.041,12.029,24.069,24.069a1.828,1.828,0,0,0,.944.566c2.006.4,4.008.816,6.01,1.237.429.09.593.039.492-.472C94.187,117.747,93.859,115.839,93.5,113.939Zm-4.281,2.767a.531.531,0,0,1-.718.14,1.727,1.727,0,0,1-.351-.3Q76.987,105.379,65.829,94.22a1.748,1.748,0,0,1-.312-.347.59.59,0,0,1,.511-.878c.3.016.472.269.675.468L81.738,108.5q3.547,3.547,7.09,7.094a5.42,5.42,0,0,1,.41.437A.49.49,0,0,1,89.219,116.705Zm1.986-1.982a.559.559,0,0,1-.632-.027,4.3,4.3,0,0,1-.39-.367L68.065,92.2c-.094-.094-.191-.187-.281-.285a.578.578,0,1,1,.823-.8c.1.09.191.187.285.281q11.04,11.04,22.075,22.079c.219.219.488.4.531.773A.621.621,0,0,1,91.205,114.723ZM96.474,93.6c-1.818-1.8-3.637-3.614-5.436-5.436-.285-.289-.433-.219-.683.031q-4.478,4.5-8.979,8.983c-.226.226-.316.375-.035.636.585.546,1.151,1.116,1.7,1.7.222.238.367.234.581,0s.359-.39.039-.632c-.16-.121-.277-.289-.429-.421-.258-.219-.355-.394-.055-.695s.468-.222.687.043c.14.172.324.308.468.476.207.242.359.156.542-.031s.347-.351.059-.589c-.172-.14-.312-.32-.476-.468-.219-.2-.363-.347-.07-.64.277-.273.46-.269.691.02l.421.429c.226.289.4.23.636-.012.219-.222.269-.379,0-.589-.156-.125-.277-.289-.429-.421-.234-.211-.39-.363-.074-.683s.5-.226.726.051c.125.156.3.273.418.429.211.277.363.2.578-.012s.324-.394.016-.62l-.382-.371c-.375-.273-.359-.484-.016-.816,1.143-1.093,2.259-2.217,3.36-3.352.289-.3.445-.3.73,0,.925.964,1.865,1.916,2.837,2.833.375.355.34.546-.008.89q-3.746,3.723-7.469,7.469c-.176.176-.574.355-.421.593a7.992,7.992,0,0,0,1.069,1.124c.121-.1.226-.176.32-.269q4.536-4.536,9.081-9.069C96.7,93.963,96.7,93.83,96.474,93.6ZM76.435,111.769c-1.865,1.916-3.77,3.793-5.662,5.686-.125.125-.258.246-.414.394a2.358,2.358,0,0,1-.2-.164q-1.61-1.6-3.216-3.216c-.094-.094-.176-.172-.1-.34.312-.667.862-.784,1.37-.277a1.447,1.447,0,0,1,.187.191c.215.289.386.324.675.039s.191-.429-.043-.632c-.137-.117-.242-.265-.382-.375-.3-.242-.339-.433-.031-.745.328-.332.484-.121.687.094.152.164.324.308.472.476.23.265.375.078.539-.078s.316-.32.059-.542a5.468,5.468,0,0,1-.425-.425c-.207-.215-.492-.359-.125-.734.386-.4.558-.125.792.117a4.377,4.377,0,0,1,.328.332c.215.277.379.258.628.012s.246-.418-.02-.632c-.156-.125-.273-.3-.429-.418-.289-.226-.308-.4-.023-.675s.425-.2.628.039c.129.152.289.277.421.429.2.226.347.339.628.055s.273-.449-.02-.675c-.14-.105-.246-.258-.382-.375-.242-.207-.382-.363-.07-.683s.5-.238.734.047c.125.156.293.277.418.429.226.277.39.156.6-.039.234-.219.246-.367.008-.593-.566-.539-1.128-1.081-1.647-1.658-.3-.336-.457-.242-.726.027q-3.483,3.512-7,7c-.316.312-.3.48,0,.784q2.622,2.581,5.2,5.2c.351.359.542.4.925.016,2.17-2.213,4.371-4.39,6.564-6.583.734-.734.714-.714-.012-1.495C77.017,111.418,76.818,111.375,76.435,111.769ZM92.083,93.947a1.419,1.419,0,1,0-2.837-.078,1.42,1.42,0,1,0,2.837.078Z" transform="translate(-62.5 -87.98)"/></svg>