<svg xmlns="http://www.w3.org/2000/svg" width="387.909" height="62.951" viewBox="0 0 387.909 62.951"><defs><style>.a{fill:#7c932e;}.b{fill:none;stroke:#7c932e;stroke-miterlimit:10;stroke-width:5px;}</style></defs><g transform="translate(-16.951 -12.701)"><g transform="translate(10 0.4)"><g transform="translate(255.043 29.252)"><path class="a" d="M847.7,169.432a17.9,17.9,0,0,0-5.153-2.178,13.994,13.994,0,0,1-4.312-1.746,2.5,2.5,0,0,1-.949-1.962,2.417,2.417,0,0,1,1.035-1.984,4.68,4.68,0,0,1,2.954-.8,4.258,4.258,0,0,1,2.954.927,3.564,3.564,0,0,1,.927,1.445l4.334-2.5a7.5,7.5,0,0,0-1.639-2.393A8.951,8.951,0,0,0,841.4,156a10.224,10.224,0,0,0-4.614.949,6.983,6.983,0,0,0-2.932,2.824,8.343,8.343,0,0,0-1.056,4.2,8.827,8.827,0,0,0,.819,3.751,7.682,7.682,0,0,0,2.242,2.824,14.294,14.294,0,0,0,4.42,1.984A40.082,40.082,0,0,1,844.529,174a3.4,3.4,0,0,1,1.315,1.121,3.116,3.116,0,0,1,.431,1.66,3.634,3.634,0,0,1-1.229,2.781,4.769,4.769,0,0,1-3.363,1.121,4.448,4.448,0,0,1-4.247-2.523l-4.269,2.458c1.509,3.277,4.312,4.937,8.365,4.937,3.256,0,5.649-.841,7.158-2.544a8.946,8.946,0,0,0,2.285-6.252,10.291,10.291,0,0,0-.841-4.377A7.412,7.412,0,0,0,847.7,169.432Z" transform="translate(-711.159 -155.698)"/><path class="a" d="M510.2,184.363V155.3h4.679l9.745,19.4V155.3h4.484v29.063h-4.829l-9.594-18.951v18.951Z" transform="translate(-458.111 -155.149)"/><path class="a" d="M627.072,184.963V160.816H620V155.9h18.93v4.916h-7.05v24.147Z" transform="translate(-544.238 -155.62)"/><path class="a" d="M723.01,155.9h-5.131L708.5,185.243h5.174l6.727-22.487,7.007,22.487h5.261Z" transform="translate(-613.658 -155.62)"/><path class="a" d="M278.237,184.643h5.153l9.357-29.343h-5.153l-6.748,22.487L273.861,155.3H268.6Z" transform="translate(-268.6 -155.149)"/><path class="a" d="M401.8,154.6v29.494h18.369v-5H406.651v-7.546h9.529v-4.98h-9.529V159.58h13.518V154.6Z" transform="translate(-373.082 -154.6)"/></g><g transform="translate(71.135 29.719)"><path class="a" d="M615,31.936V3.8h4.679V27.128h11.707v4.808Z" transform="translate(-540.359 -3.067)"/><path class="a" d="M715.5,2.7h4.679V18.072a39.529,39.529,0,0,0,.172,4.657,4.849,4.849,0,0,0,1.488,2.911,4.481,4.481,0,0,0,3.083,1.035,4.431,4.431,0,0,0,2.652-.733,3.541,3.541,0,0,0,1.4-2.005,24.092,24.092,0,0,0,.388-5.519V2.7h4.678V17.6a39.293,39.293,0,0,1-.6,8.257,7.008,7.008,0,0,1-2.738,4.118,9.235,9.235,0,0,1-5.649,1.574,10.313,10.313,0,0,1-5.67-1.315,7.3,7.3,0,0,1-2.954-3.687c-.6-1.574-.927-4.484-.927-8.732Z" transform="translate(-619.192 -2.204)"/><path class="a" d="M852.1,18.856a6.3,6.3,0,0,0-3.234-2.523,5.94,5.94,0,0,0,2.372-2.458,9.33,9.33,0,0,0,.905-4.14,7.558,7.558,0,0,0-1.056-3.989,6.037,6.037,0,0,0-2.609-2.458,14.283,14.283,0,0,0-5.368-.69H833.8V30.973h7.913a35.927,35.927,0,0,0,6.554-.345,6.066,6.066,0,0,0,3.514-2.652,8.937,8.937,0,0,0,1.488-5.239A6.33,6.33,0,0,0,852.1,18.856Zm-4.226,5.864a2.85,2.85,0,0,1-1.358,1.186,13.841,13.841,0,0,1-3.687.3h-4.355V7.343h2.695a28.633,28.633,0,0,1,4.506.194,2.328,2.328,0,0,1,1.337.97,3.488,3.488,0,0,1,.561,2.048,4.822,4.822,0,0,1-.668,2.673,2.984,2.984,0,0,1-1.876,1.013,30.451,30.451,0,0,1-3.169.086V19.05h.431a14.442,14.442,0,0,1,4.01.345,3.05,3.05,0,0,1,1.574,1.229,2.769,2.769,0,0,1,.582,1.854A4.588,4.588,0,0,1,847.879,24.721Z" transform="translate(-711.986 -2.126)"/><path class="a" d="M408.369,13.824a17.885,17.885,0,0,0-5.11-2.156,12.4,12.4,0,0,1-4.269-1.746,2.437,2.437,0,0,1-.927-1.94A2.379,2.379,0,0,1,399.1,6.019a4.793,4.793,0,0,1,2.932-.8,4.3,4.3,0,0,1,2.932.906,3.326,3.326,0,0,1,.906,1.445l4.312-2.479a7.347,7.347,0,0,0-1.617-2.372A8.8,8.8,0,0,0,402.159.5a10.191,10.191,0,0,0-4.592.949,7,7,0,0,0-2.911,2.8A8.206,8.206,0,0,0,393.6,8.434a8.732,8.732,0,0,0,.819,3.73,7.388,7.388,0,0,0,2.221,2.8,14.178,14.178,0,0,0,4.4,1.962,34.571,34.571,0,0,1,4.226,1.466,2.884,2.884,0,0,1,1.725,2.76,3.589,3.589,0,0,1-1.229,2.76,4.813,4.813,0,0,1-3.342,1.121,4.4,4.4,0,0,1-4.2-2.5l-4.247,2.458c1.509,3.256,4.269,4.894,8.322,4.894q4.851,0,7.115-2.523a8.958,8.958,0,0,0,2.264-6.209,10.087,10.087,0,0,0-.841-4.334A7.657,7.657,0,0,0,408.369,13.824Z" transform="translate(-366.693 -0.478)"/><path class="a" d="M283.31.4h-5.153L268.8,29.743h5.153L280.7,7.256l6.985,22.487h5.261Z" transform="translate(-268.8 -0.4)"/><path class="a" d="M951.8,2.8V31.173h17.679V26.365h-13V19.1h9.012V14.313h-9.012V7.586h13V2.8Z" transform="translate(-804.545 -2.283)"/><path class="a" d="M504.7,2.7V31.073h17.7V26.265h-13V19h9.012V14.213H509.4V7.486h13V2.7Z" transform="translate(-453.84 -2.204)"/></g><g transform="translate(9.451 12.007)"><path class="b" d="M86.595,127.735A8.2,8.2,0,0,1,78.4,119.54c0-4.534,8.195-16.14,8.195-16.14s8.195,11.627,8.195,16.14A8.19,8.19,0,0,1,86.595,127.735Z" transform="translate(-64.174 -81.158)"/><path class="b" d="M13.827,38.518,10,41.846v6.177l3.827,3.037,1.394,2.974-.978,4.6,4.825,4.929,4.368-1.1,3.12,1.331,3.369,4.035,5.886.021,2.517-3.889,3.432-1.6,4.305,1.061,4.992-4.888-.915-3.952L51.681,51.1l3.931-3.723V42.386l-3.952-3.2S36.1,13.081,34.917,11.334c-1.331-1.955-3.557-1.893-4.888.062C27.159,15.639,13.827,38.518,13.827,38.518Z" transform="translate(-10 -7.104)"/></g></g></g></svg>