<svg xmlns="http://www.w3.org/2000/svg" width="34.142" height="32.172" viewBox="0 0 34.142 32.172"><defs><style>.a{fill:#7c932e;}</style></defs><path class="a" d="M14.944,46.472a.534.534,0,0,1-.058-.362l2.605-13.828a.55.55,0,0,0-.461-.645,14.825,14.825,0,1,0,3.619,28.315,1.3,1.3,0,0,0,.618-1.82ZM33.17,40.951a1.026,1.026,0,0,0-1.393-.557L20.311,45.84a1.022,1.022,0,0,0-.461,1.407L25.9,58.4a1.023,1.023,0,0,0,1.458.369A14.835,14.835,0,0,0,33.17,40.951ZM19.164,42.716l11.281-5.357A.784.784,0,0,0,30.8,36.28a14.879,14.879,0,0,0-9.481-7.3.779.779,0,0,0-.946.618L18.061,41.866A.781.781,0,0,0,19.164,42.716Z" transform="translate(-0.025 -28.955)"/></svg>