<svg xmlns="http://www.w3.org/2000/svg" width="463.153" height="642.555" viewBox="0 0 463.153 642.555"><defs><style>.a{opacity:0.1;}.b{fill:none;stroke:#e4ab42;stroke-miterlimit:10;stroke-width:2px;}</style></defs><g class="a" transform="translate(1.117 1.001)"><path class="b" d="M409.834-719.367c0-45.317-20.68-86.355-40.524-124.354-35.6-68.164-77.747-132.377-119.6-196.755Q229.549-1071.5,208.7-1102.07c-15.568-22.955-41.783-22.291-57.5.757-47.039,68.994-92.434,139.044-134.662,211.087-25.95,44.271-51.479,88.919-62.2,139.95-14.248,67.8-1.19,130.849,41.193,184.97,39.478,50.416,90.881,86.914,173.1,86.914" transform="translate(51.202 1118.946)"/><path class="b" d="M141.141-578.218C62.392-579.2-17.566-640.953-29.878-731.849c-1.09-8.047-1.408-16.2-2.087-24.3-.272-42.809,16.541-80.218,36.892-116.27,34.029-60.28,71.779-117.725,108.612-176.3,9.958-15.838,22.568-37.4,41.58-37.4,16.835,0,28.365,27.483,34.681,37.4,47.43,74.443,87.8,133.227,125.243,213.609,8.27,17.76,14,45.31,14.016,65.362" transform="translate(79.075 1166.522)"/><path class="b" d="M110.739-684.314c-70.415,0-122.684-56.058-121.479-135.012.416-17.229,6.74-42.772,19.205-64.6C37.763-935.215,93.777-1023,95.088-1025.2c22.1-37.23,35.6-27.7,51.253.235,0,0,73.662,108.164,87.92,138.135,9.081,19.09,15.057,41.1,15.057,61.811" transform="translate(109.804 1219.347)"/><path class="b" d="M79.18-789.16c-42.8,0-68.23-33.988-68.208-78.462-.171-11.491,4.553-26.915,12.355-41.115q25.336-46.11,51.966-91.5c8.608-14.711,18.253-14.613,26.952.081,18.427,31.127,35.175,55.456,51.452,87.805,4.129,8.207,10.928,24.73,10.928,35.085" transform="translate(141.288 1275.036)"/></g></svg>