<svg xmlns="http://www.w3.org/2000/svg" width="248.681" height="289.756" viewBox="0 0 248.681 289.756"><defs><style>.a{fill:#e4ab42;}</style></defs><g transform="translate(-780.65 -1379.43)"><path class="a" d="M880.5,1667.334c-32.56,0-57.537-12.528-78.6-39.427-19.019-24.287-25.316-52.523-18.718-83.926,4.979-23.689,17.052-44.287,27.7-62.46,16.806-28.669,36.2-59.067,59.286-92.933,3.969-5.82,9.631-9.158,15.536-9.158h.018c5.845.007,11.189,3.143,15.047,8.83,7.021,10.353,12.76,18.97,18.056,27.119l2.343,3.6c17.361,26.695,35.312,54.3,50.36,83.112,8.1,15.5,18.172,34.8,18.172,56.135h-6.456c0-19.753-9.67-38.268-17.439-53.145-14.905-28.542-32.772-56.014-50.051-82.582l-2.343-3.6c-5.274-8.111-10.99-16.7-17.987-27.011-2.621-3.863-6.07-5.994-9.711-6h-.012c-3.792,0-7.413,2.251-10.2,6.339-23,33.742-42.319,64.019-59.051,92.561-10.4,17.747-22.194,37.862-26.955,60.524-6.188,29.449-.307,55.9,17.483,78.616,20.01,25.554,42.684,36.951,73.516,36.951Z" transform="translate(0 0)"/><path class="a" d="M879.163,1641.878c-33.865-.421-72.412-26.829-78.3-70.3-.341-2.514-.516-5.041-.687-7.483-.078-1.119-.155-2.239-.249-3.357l-.011-.25c-.128-20.2,7.916-37.263,16.626-52.692,11.575-20.505,24.334-40.591,36.671-60.015q5.574-8.771,11.13-17.579l.591-.944c4.491-7.173,10.644-17,20.412-17,7.961,0,13,9.083,16.331,15.093.633,1.142,1.181,2.127,1.629,2.832,3.162,4.964,6.254,9.77,9.281,14.474,17.121,26.614,31.908,49.6,45.952,79.754,3.735,8.019,6.452,20.669,6.461,30.078l-6.456.007c-.008-8.584-2.472-20.089-5.857-27.359-13.859-29.755-28.536-52.57-45.529-78.987-3.032-4.712-6.128-9.525-9.3-14.5-.554-.869-1.146-1.937-1.83-3.17-2.442-4.4-6.526-11.768-10.685-11.768-6.194,0-11.042,7.745-14.939,13.968l-.6.953q-5.552,8.831-11.145,17.6c-12.293,19.354-25.005,39.368-36.5,59.727-8.254,14.621-15.877,30.72-15.793,49.356.091,1.106.168,2.214.245,3.323.17,2.446.33,4.758.642,7.063,5.42,40.012,40.856,64.321,71.983,64.707Z" transform="translate(1.465 2.497)"/><path class="a" d="M877.735,1615.7a54.7,54.7,0,0,1-39.378-16.124c-11.389-11.564-17.506-28.07-17.224-46.476.22-9.155,3.7-20.894,8.862-29.935,7.359-12.884,19.656-32.965,36.552-59.689.891-1.409,1.434-2.267,1.54-2.442,5.052-8.508,9.467-12.317,14.292-12.317h.115c5.888.074,10.033,5.976,13.629,12.375,2.174,3.194,32.594,47.965,38.8,61.008,4.468,9.392,6.929,19.529,6.929,28.545H935.4c0-8.076-2.238-17.229-6.3-25.771-6.087-12.8-38.061-59.791-38.384-60.264l-.147-.239c-3.407-6.079-6.148-9.173-8.148-9.2h-.022c-1.015,0-3.859.913-8.759,9.166-.084.141-.661,1.055-1.629,2.587-16.844,26.642-29.092,46.64-36.4,59.441-5.677,9.939-7.865,20.68-8.014,26.858-.254,16.634,5.2,31.5,15.37,41.818a48.3,48.3,0,0,0,34.778,14.2Z" transform="translate(3.078 5.27)"/><path class="a" d="M876.049,1591.179c-10.011,0-18.49-3.829-24.521-11.072-5.6-6.725-8.681-16.184-8.675-26.634-.083-5.473,2.1-12.825,5.827-19.617,7.1-12.922,14.8-26.474,22.877-40.281,2.49-4.254,5.4-6.416,8.656-6.424h.018c3.262,0,6.2,2.168,8.731,6.445,2.552,4.312,5.05,8.357,7.466,12.268,5.3,8.574,10.3,16.675,15.248,26.505.527,1.047,5.146,10.412,5.146,16.867h-6.456c0-3.748-2.665-10.406-4.457-13.964-4.821-9.581-9.752-17.564-14.972-26.016-2.432-3.936-4.946-8.007-7.529-12.37-1.533-2.588-2.717-3.279-3.177-3.279h0c-.45,0-1.61.682-3.1,3.229-8.05,13.756-15.718,27.258-22.79,40.128-3.169,5.767-5.1,12.076-5.029,16.463,0,8.992,2.546,16.981,7.18,22.548,4.765,5.723,11.529,8.747,19.56,8.747Z" transform="translate(4.73 8.193)"/><g transform="translate(899.924 1568.824)"><path class="a" d="M891.494,1579.365l7.444-23.538h2.73l7.9,23.538H906.65l-2.245-7.129h-8.121l-2.1,7.129Zm5.537-9.666h6.575l-2.006-6.519q-.931-3-1.364-4.881a34.506,34.506,0,0,1-1.057,4.5Z" transform="translate(-891.494 -1555.409)"/><path class="a" d="M910.133,1571.816l2.409-.257a7,7,0,0,0,.875,3.027,4.907,4.907,0,0,0,1.951,1.742,6.1,6.1,0,0,0,2.858.659,5.169,5.169,0,0,0,3.54-1.114,3.677,3.677,0,0,0,1.26-2.892,3.516,3.516,0,0,0-.457-1.817,3.434,3.434,0,0,0-1.381-1.274,25.728,25.728,0,0,0-3.99-1.4,14.065,14.065,0,0,1-3.886-1.629,5.663,5.663,0,0,1-1.8-2.08,6.184,6.184,0,0,1-.642-2.851,6.263,6.263,0,0,1,1.846-4.671,6.789,6.789,0,0,1,4.977-1.815,7.954,7.954,0,0,1,3.765.851,6.047,6.047,0,0,1,2.505,2.44,8.039,8.039,0,0,1,.956,3.741l-2.457.225a5.078,5.078,0,0,0-1.373-3.4,4.653,4.653,0,0,0-3.315-1.108,4.966,4.966,0,0,0-3.308.972,3.146,3.146,0,0,0-1.139,2.511,2.892,2.892,0,0,0,.835,2.215,9.971,9.971,0,0,0,3.755,1.594,24.532,24.532,0,0,1,4.013,1.371,6.154,6.154,0,0,1,3.567,5.875,7.306,7.306,0,0,1-.947,3.681,6.373,6.373,0,0,1-2.577,2.526,8.257,8.257,0,0,1-3.925.866,7.662,7.662,0,0,1-5.708-2.152A8.2,8.2,0,0,1,910.133,1571.816Z" transform="translate(-890.076 -1555.438)"/><path class="a" d="M928.46,1579.365v-23.538h13.953v2.778h-11.4v7.192H941.69v2.778H931.013v8.013h11.85v2.777Z" transform="translate(-888.683 -1555.409)"/><path class="a" d="M945.742,1579.365v-23.538h2.552v20.761H957.8v2.777Z" transform="translate(-887.368 -1555.409)"/><path class="a" d="M973.2,1555.826h2.552v13.6a19.741,19.741,0,0,1-.665,5.612,6.447,6.447,0,0,1-2.422,3.459,7.437,7.437,0,0,1-4.467,1.269,7.017,7.017,0,0,1-5.718-2.28q-1.9-2.279-1.9-8.06v-13.6h2.552v13.584a15.343,15.343,0,0,0,.5,4.624,4.141,4.141,0,0,0,1.629,2.176,4.889,4.889,0,0,0,2.754.747,4.762,4.762,0,0,0,3.958-1.542q1.228-1.54,1.229-6Z" transform="translate(-886.24 -1555.409)"/><path class="a" d="M979.351,1579.365v-23.538H986.6a7.491,7.491,0,0,1,3.489.682,5.266,5.266,0,0,1,2.106,2.127,6.347,6.347,0,0,1,.82,3.192,6.014,6.014,0,0,1-.707,2.921,5.484,5.484,0,0,1-1.991,2.086,5.212,5.212,0,0,1,2.645,2.081,6.441,6.441,0,0,1,.967,3.622,7.756,7.756,0,0,1-.875,3.752,5.4,5.4,0,0,1-2.336,2.346,9.093,9.093,0,0,1-4.014.731Zm2.552-13.648h4.183a8.448,8.448,0,0,0,2.333-.225,2.917,2.917,0,0,0,1.535-1.132,3.8,3.8,0,0,0,.539-2.16,4.143,4.143,0,0,0-.491-2.111,2.6,2.6,0,0,0-1.3-1.164,8.987,8.987,0,0,0-2.919-.321H981.9Zm0,10.87h4.809a7.044,7.044,0,0,0,2.349-.29,3.211,3.211,0,0,0,1.665-1.373,4.615,4.615,0,0,0,.57-2.4,4.352,4.352,0,0,0-.547-2.256,3.275,3.275,0,0,0-1.472-1.348,7.362,7.362,0,0,0-2.9-.426H981.9Z" transform="translate(-884.812 -1555.409)"/><path class="a" d="M996.961,1579.365v-23.538h13.953v2.778h-11.4v7.192h10.678v2.778H999.514v8.013h11.849v2.777Z" transform="translate(-883.473 -1555.409)"/></g><g transform="translate(899.807 1601.059)"><path class="a" d="M891.385,1606.964l5.5-17.382H898.9l5.838,17.382h-2.159l-1.658-5.265h-6l-1.55,5.265Zm4.09-7.139h4.855l-1.482-4.814q-.687-2.216-1.007-3.6a25.49,25.49,0,0,1-.781,3.32Z" transform="translate(-891.385 -1585.076)"/><path class="a" d="M905.15,1601.389l1.779-.19a5.158,5.158,0,0,0,.647,2.235,3.624,3.624,0,0,0,1.44,1.287,4.5,4.5,0,0,0,2.111.487,3.822,3.822,0,0,0,2.615-.822,2.719,2.719,0,0,0,.93-2.136,2.6,2.6,0,0,0-.337-1.343,2.545,2.545,0,0,0-1.02-.94,18.982,18.982,0,0,0-2.946-1.037,10.373,10.373,0,0,1-2.87-1.2,4.178,4.178,0,0,1-1.328-1.535,4.569,4.569,0,0,1-.475-2.1,4.63,4.63,0,0,1,1.363-3.451,5.023,5.023,0,0,1,3.676-1.339,5.884,5.884,0,0,1,2.78.628,4.477,4.477,0,0,1,1.85,1.8,5.936,5.936,0,0,1,.706,2.763l-1.814.166a3.748,3.748,0,0,0-1.014-2.514,3.442,3.442,0,0,0-2.449-.819,3.673,3.673,0,0,0-2.443.718,2.326,2.326,0,0,0-.842,1.855,2.139,2.139,0,0,0,.617,1.636,7.365,7.365,0,0,0,2.774,1.176,18.167,18.167,0,0,1,2.963,1.013,4.8,4.8,0,0,1,1.969,1.751,4.851,4.851,0,0,1,.665,2.588,5.381,5.381,0,0,1-.7,2.718,4.7,4.7,0,0,1-1.9,1.866,6.107,6.107,0,0,1-2.9.639,5.659,5.659,0,0,1-4.216-1.59A6.052,6.052,0,0,1,905.15,1601.389Z" transform="translate(-890.338 -1585.097)"/><path class="a" d="M918.155,1598.519q0-4.447,1.956-6.835a6.053,6.053,0,0,1,4.873-2.39,5.938,5.938,0,0,1,3.438,1.068,7.19,7.19,0,0,1,2.461,3.1,11.818,11.818,0,0,1,.907,4.843,10.5,10.5,0,0,1-1.755,6.3,6.089,6.089,0,0,1-10.137-.071A10.216,10.216,0,0,1,918.155,1598.519Zm1.944.029a7.81,7.81,0,0,0,1.417,4.991,4.252,4.252,0,0,0,6.924-.018,8.414,8.414,0,0,0,1.405-5.269,10.518,10.518,0,0,0-.724-4.01,4.923,4.923,0,0,0-1.678-2.166,4.075,4.075,0,0,0-2.448-.813,4.27,4.27,0,0,0-3.516,1.779Q920.1,1594.824,920.1,1598.548Z" transform="translate(-889.349 -1585.097)"/><path class="a" d="M943.773,1600.891l1.9.58a8.039,8.039,0,0,1-2.2,4.37,5.451,5.451,0,0,1-3.824,1.441,5.814,5.814,0,0,1-3.384-.968,6.826,6.826,0,0,1-2.3-3.1,12.98,12.98,0,0,1-.9-5.042,11.773,11.773,0,0,1,.9-4.858,6.858,6.858,0,0,1,2.427-3,6.05,6.05,0,0,1,3.419-1.015,5.248,5.248,0,0,1,3.549,1.284,6.95,6.95,0,0,1,2.077,3.767l-1.85.534q-.951-3.616-3.811-3.617a4.2,4.2,0,0,0-2.47.73,4.914,4.914,0,0,0-1.669,2.273,10.5,10.5,0,0,0-.623,3.9,9.326,9.326,0,0,0,1.257,5.358,3.9,3.9,0,0,0,3.343,1.786,3.678,3.678,0,0,0,2.662-1.1A5.917,5.917,0,0,0,943.773,1600.891Z" transform="translate(-888.215 -1585.097)"/><path class="a" d="M947.867,1606.964v-17.382h1.884v17.382Z" transform="translate(-887.089 -1585.076)"/><path class="a" d="M951.792,1606.964l5.5-17.382h2.016l5.838,17.382h-2.157l-1.658-5.265h-6l-1.55,5.265Zm4.089-7.139h4.855l-1.481-4.814q-.688-2.216-1.007-3.6a25.833,25.833,0,0,1-.781,3.32Z" transform="translate(-886.791 -1585.076)"/><path class="a" d="M976.308,1600.891l1.9.58a8.04,8.04,0,0,1-2.2,4.37,5.451,5.451,0,0,1-3.824,1.441,5.814,5.814,0,0,1-3.384-.968,6.826,6.826,0,0,1-2.3-3.1,12.979,12.979,0,0,1-.9-5.042,11.79,11.79,0,0,1,.9-4.858,6.86,6.86,0,0,1,2.428-3,6.05,6.05,0,0,1,3.419-1.015,5.243,5.243,0,0,1,3.548,1.284,6.95,6.95,0,0,1,2.078,3.767l-1.85.534q-.95-3.616-3.811-3.617a4.2,4.2,0,0,0-2.47.73,4.913,4.913,0,0,0-1.669,2.273,10.5,10.5,0,0,0-.623,3.9,9.328,9.328,0,0,0,1.257,5.358,3.9,3.9,0,0,0,3.343,1.786,3.678,3.678,0,0,0,2.662-1.1A5.925,5.925,0,0,0,976.308,1600.891Z" transform="translate(-885.74 -1585.097)"/><path class="a" d="M980.4,1606.964v-17.382h1.884v17.382Z" transform="translate(-884.615 -1585.076)"/><path class="a" d="M985.285,1598.816q0-4.447,1.956-6.835a6.053,6.053,0,0,1,4.874-2.39,5.943,5.943,0,0,1,3.439,1.067,7.2,7.2,0,0,1,2.46,3.1,11.819,11.819,0,0,1,.907,4.843,10.5,10.5,0,0,1-1.755,6.3,6.089,6.089,0,0,1-10.137-.071A10.217,10.217,0,0,1,985.285,1598.816Zm1.945.029a7.81,7.81,0,0,0,1.417,4.991,4.252,4.252,0,0,0,6.924-.018,8.406,8.406,0,0,0,1.405-5.269,10.518,10.518,0,0,0-.723-4.01,4.933,4.933,0,0,0-1.678-2.166,4.082,4.082,0,0,0-2.449-.813,4.269,4.269,0,0,0-3.516,1.78Q987.23,1595.121,987.23,1598.845Zm3.214-10.131,1.292-3.319h2.287l-2.134,3.319Z" transform="translate(-884.243 -1585.394)"/><path class="a" d="M1000.692,1606.964v-17.382h1.932l7.494,13.674v-13.674h1.8v17.382h-1.933l-7.482-13.677v13.677Z" transform="translate(-883.072 -1585.076)"/></g><g transform="translate(900.174 1626.931)"><path class="a" d="M891.726,1628.28v-15.574h9.233v1.838h-7.543v4.76h7.064v1.838h-7.064v5.3h7.84v1.838Z" transform="translate(-891.726 -1609.189)"/><path class="a" d="M902.727,1623.286l1.593-.171a4.644,4.644,0,0,0,.579,2,3.258,3.258,0,0,0,1.291,1.154,4.043,4.043,0,0,0,1.891.435,3.424,3.424,0,0,0,2.343-.736,2.433,2.433,0,0,0,.834-1.913,2.333,2.333,0,0,0-.3-1.2,2.286,2.286,0,0,0-.914-.844,16.978,16.978,0,0,0-2.641-.928A9.3,9.3,0,0,1,904.83,1620a3.736,3.736,0,0,1-1.189-1.376,4.079,4.079,0,0,1-.425-1.885,4.145,4.145,0,0,1,1.221-3.092,4.494,4.494,0,0,1,3.293-1.2,5.263,5.263,0,0,1,2.492.564,4,4,0,0,1,1.657,1.614,5.316,5.316,0,0,1,.632,2.476l-1.625.148a3.356,3.356,0,0,0-.909-2.252,3.08,3.08,0,0,0-2.193-.734,3.287,3.287,0,0,0-2.189.644,2.082,2.082,0,0,0-.754,1.661,1.915,1.915,0,0,0,.553,1.467,6.584,6.584,0,0,0,2.485,1.053,16.307,16.307,0,0,1,2.655.907,4.074,4.074,0,0,1,2.36,3.888,4.828,4.828,0,0,1-.626,2.435,4.219,4.219,0,0,1-1.7,1.672,5.487,5.487,0,0,1-2.6.572,5.071,5.071,0,0,1-3.777-1.423A5.417,5.417,0,0,1,902.727,1623.286Z" transform="translate(-890.889 -1609.209)"/><path class="a" d="M914.813,1628.28v-15.574h4.812a7.764,7.764,0,0,1,2.507.3,3.387,3.387,0,0,1,1.764,1.5,5.121,5.121,0,0,1,.658,2.687,5.287,5.287,0,0,1-1.074,3.432,4.518,4.518,0,0,1-3.707,1.328H916.5v6.332Zm1.688-8.169h3.3a3.168,3.168,0,0,0,2.283-.706,2.854,2.854,0,0,0,.723-2.13,3.3,3.3,0,0,0-.356-1.583,2.012,2.012,0,0,0-.861-.9,4.665,4.665,0,0,0-1.822-.245H916.5Z" transform="translate(-889.97 -1609.189)"/><path class="a" d="M923.868,1628.28l4.925-15.574H930.6l5.23,15.574H933.9l-1.485-4.716h-5.373l-1.389,4.716Zm3.664-6.4h4.349l-1.327-4.314q-.616-1.986-.9-3.229a22.876,22.876,0,0,1-.7,2.975Z" transform="translate(-889.282 -1609.189)"/><path class="a" d="M936.684,1628.529v-15.574h1.732l6.715,12.252v-12.252h1.615v15.574h-1.733l-6.7-12.254v12.254Zm2.232-16.657a2.709,2.709,0,0,1,.509-1.777,1.555,1.555,0,0,1,1.254-.635,3.1,3.1,0,0,1,1.477.573,1.694,1.694,0,0,0,.818.318.513.513,0,0,0,.43-.184,1.576,1.576,0,0,0,.207-.729h1.137a2.983,2.983,0,0,1-.516,1.814,1.493,1.493,0,0,1-1.206.6,2.919,2.919,0,0,1-1.435-.6,1.917,1.917,0,0,0-.849-.382.585.585,0,0,0-.479.247,1.222,1.222,0,0,0-.192.751Z" transform="translate(-888.307 -1609.438)"/><path class="a" d="M948.76,1620.714a9.444,9.444,0,0,1,1.753-6.124,5.425,5.425,0,0,1,4.367-2.141,5.315,5.315,0,0,1,3.081.957,6.458,6.458,0,0,1,2.2,2.778,10.6,10.6,0,0,1,.812,4.339,9.412,9.412,0,0,1-1.572,5.642,5.456,5.456,0,0,1-9.083-.063A9.154,9.154,0,0,1,948.76,1620.714Zm1.743.026a7,7,0,0,0,1.269,4.471,3.811,3.811,0,0,0,6.2-.016,7.538,7.538,0,0,0,1.259-4.721,9.415,9.415,0,0,0-.649-3.594,4.41,4.41,0,0,0-1.5-1.94,3.659,3.659,0,0,0-2.194-.729,3.823,3.823,0,0,0-3.15,1.594A8.025,8.025,0,0,0,950.5,1620.741Z" transform="translate(-887.388 -1609.209)"/><path class="a" d="M962.515,1628.28v-15.574h1.69v13.736h6.289v1.838Z" transform="translate(-886.342 -1609.189)"/><path class="a" d="M971.037,1628.28l4.925-15.574h1.807L983,1628.28h-1.934l-1.485-4.716h-5.373l-1.388,4.716Zm3.664-6.4h4.351l-1.328-4.314q-.616-1.986-.9-3.229a23.071,23.071,0,0,1-.7,2.975Z" transform="translate(-885.694 -1609.189)"/></g><g transform="translate(1006.007 1631.034)"><path class="a" d="M990.079,1628.654v-15.4h4.36a8.117,8.117,0,0,1,2.458.283,4.176,4.176,0,0,1,1.912,1.345,7,7,0,0,1,1.261,2.464,12.192,12.192,0,0,1,.452,3.524,11.44,11.44,0,0,1-.767,4.44,5.413,5.413,0,0,1-1.97,2.585,5.8,5.8,0,0,1-3.146.762Zm1.67-1.818h2.69a4.674,4.674,0,0,0,2.468-.53,3.351,3.351,0,0,0,1.292-1.708,10.509,10.509,0,0,0,.6-3.751,8.734,8.734,0,0,0-.636-3.682,3.481,3.481,0,0,0-1.633-1.792,5.5,5.5,0,0,0-2.133-.306h-2.648Z" transform="translate(-990.079 -1613.251)"/><path class="a" d="M1002.481,1628.654v-15.4h9.13v1.816h-7.459v4.708h6.987v1.818h-6.987v5.243h7.754v1.818Z" transform="translate(-989.136 -1613.251)"/></g><g transform="translate(900.26 1652.95)"><path class="a" d="M891.806,1649.567v-15.69h1.7v13.838h6.336v1.852Z" transform="translate(-891.806 -1633.599)"/><path class="a" d="M910.107,1633.877h1.7v9.065a13.183,13.183,0,0,1-.443,3.741,4.3,4.3,0,0,1-1.614,2.307,4.968,4.968,0,0,1-2.978.845,4.683,4.683,0,0,1-3.812-1.519q-1.266-1.521-1.267-5.373v-9.065h1.7v9.054a10.235,10.235,0,0,0,.331,3.083,2.753,2.753,0,0,0,1.087,1.45,3.259,3.259,0,0,0,1.835.5,3.174,3.174,0,0,0,2.638-1.026q.818-1.028.819-4Z" transform="translate(-891.054 -1633.599)"/><path class="a" d="M914.208,1649.567v-15.69h4.833a5.007,5.007,0,0,1,2.325.454,3.508,3.508,0,0,1,1.4,1.417,4.234,4.234,0,0,1,.547,2.128,4,4,0,0,1-.471,1.946,3.657,3.657,0,0,1-1.327,1.391,3.482,3.482,0,0,1,1.764,1.386,4.309,4.309,0,0,1,.645,2.416,5.175,5.175,0,0,1-.583,2.5,3.6,3.6,0,0,1-1.557,1.564,6.068,6.068,0,0,1-2.676.487Zm1.7-9.1H918.7a5.6,5.6,0,0,0,1.555-.151,1.943,1.943,0,0,0,1.024-.755,2.535,2.535,0,0,0,.359-1.44,2.768,2.768,0,0,0-.327-1.407,1.74,1.74,0,0,0-.868-.776,6.025,6.025,0,0,0-1.947-.214H915.91Zm0,7.245h3.2a4.7,4.7,0,0,0,1.566-.193,2.141,2.141,0,0,0,1.109-.915,3.076,3.076,0,0,0,.381-1.6,2.9,2.9,0,0,0-.365-1.5,2.185,2.185,0,0,0-.98-.9,4.912,4.912,0,0,0-1.936-.284h-2.98Z" transform="translate(-890.102 -1633.599)"/><path class="a" d="M925.907,1649.567v-15.69h5.7a6.029,6.029,0,0,1,2.637.438,3.343,3.343,0,0,1,1.4,1.46,4.944,4.944,0,0,1,.547,2.369,3.986,3.986,0,0,1-3.618,4.278,4.37,4.37,0,0,1,1.091.872,11.041,11.041,0,0,1,1.339,2l2.247,4.271h-2.14l-1.716-3.263a20.363,20.363,0,0,0-1.5-2.579,2.948,2.948,0,0,0-.984-.9,3.111,3.111,0,0,0-1.331-.23h-1.967v6.968Zm1.7-8.766h3.66a4.488,4.488,0,0,0,1.82-.288,2.207,2.207,0,0,0,.984-.91,2.8,2.8,0,0,0,.364-1.445,2.492,2.492,0,0,0-.7-1.868,2.848,2.848,0,0,0-2.066-.679h-4.066Z" transform="translate(-889.213 -1633.599)"/><path class="a" d="M938.779,1649.567v-15.69h1.7v15.69Z" transform="translate(-888.234 -1633.599)"/><path class="a" d="M952.8,1644.085l1.712.524a7.255,7.255,0,0,1-1.985,3.945,4.923,4.923,0,0,1-3.451,1.3,5.256,5.256,0,0,1-3.056-.873,6.163,6.163,0,0,1-2.076-2.8,11.716,11.716,0,0,1-.808-4.552,10.644,10.644,0,0,1,.808-4.386,6.2,6.2,0,0,1,2.191-2.71,5.467,5.467,0,0,1,3.086-.916,4.731,4.731,0,0,1,3.2,1.159,6.268,6.268,0,0,1,1.875,3.4l-1.669.482q-.857-3.264-3.44-3.265a3.8,3.8,0,0,0-2.23.659,4.44,4.44,0,0,0-1.505,2.052,9.474,9.474,0,0,0-.563,3.524,8.42,8.42,0,0,0,1.134,4.836,3.52,3.52,0,0,0,3.018,1.612,3.316,3.316,0,0,0,2.4-.99A5.337,5.337,0,0,0,952.8,1644.085Z" transform="translate(-887.902 -1633.618)"/><path class="a" d="M954.885,1649.567l4.962-15.69h1.821l5.268,15.69h-1.948l-1.5-4.752h-5.413l-1.4,4.752Zm3.692-6.444h4.382l-1.336-4.345q-.621-2-.909-3.254a23.167,23.167,0,0,1-.7,3Z" transform="translate(-887.009 -1633.599)"/><path class="a" d="M967.8,1649.567v-15.69h1.744l6.764,12.343v-12.343h1.627v15.69h-1.744l-6.753-12.346v12.346Z" transform="translate(-886.027 -1633.599)"/><path class="a" d="M983.774,1649.567v-13.839h-4.239v-1.851h10.2v1.851h-4.259v13.839Z" transform="translate(-885.134 -1633.599)"/><path class="a" d="M991.154,1649.567v-15.69h9.3v1.851h-7.6v4.8h7.117v1.851h-7.117v5.34h7.9v1.852Z" transform="translate(-884.25 -1633.599)"/><path class="a" d="M1002.236,1644.535l1.606-.171a4.66,4.66,0,0,0,.583,2.017,3.269,3.269,0,0,0,1.3,1.161,4.065,4.065,0,0,0,1.9.438,3.45,3.45,0,0,0,2.361-.741,2.453,2.453,0,0,0,.839-1.927,2.346,2.346,0,0,0-.3-1.212,2.288,2.288,0,0,0-.921-.849,17.24,17.24,0,0,0-2.659-.936,9.35,9.35,0,0,1-2.59-1.086,3.781,3.781,0,0,1-1.2-1.386,4.13,4.13,0,0,1-.428-1.9,4.176,4.176,0,0,1,1.231-3.115,4.529,4.529,0,0,1,3.317-1.209,5.3,5.3,0,0,1,2.51.568,4.03,4.03,0,0,1,1.669,1.626,5.36,5.36,0,0,1,.637,2.494l-1.638.15a3.38,3.38,0,0,0-.915-2.269,3.106,3.106,0,0,0-2.21-.738,3.315,3.315,0,0,0-2.2.648,2.1,2.1,0,0,0-.76,1.674,1.927,1.927,0,0,0,.556,1.476,6.654,6.654,0,0,0,2.5,1.062,16.585,16.585,0,0,1,2.674.914,4.1,4.1,0,0,1,2.378,3.917,4.869,4.869,0,0,1-.632,2.454,4.244,4.244,0,0,1-1.717,1.684,5.523,5.523,0,0,1-2.617.577,5.108,5.108,0,0,1-3.8-1.435A5.456,5.456,0,0,1,1002.236,1644.535Z" transform="translate(-883.407 -1633.618)"/></g></g></svg>