<svg xmlns="http://www.w3.org/2000/svg" width="33.493" height="33.493" viewBox="0 0 33.493 33.493"><defs><style>.a{fill:#7c932e;}</style></defs><path class="a" d="M19,2.25A16.746,16.746,0,1,0,35.743,19,16.746,16.746,0,0,0,19,2.25Zm0,31.1A14.354,14.354,0,1,1,33.351,19,14.354,14.354,0,0,1,19,33.351Z" transform="translate(-2.25 -2.25)"/><path class="a" d="M19.9,26.542a1.795,1.795,0,1,1-1.794-1.751A1.795,1.795,0,0,1,19.9,26.542Z" transform="translate(-1.36 -0.824)"/><path class="a" d="M19.552,9H17.757a5.371,5.371,0,0,0-5.383,5.383v.6h2.392v-.6a2.991,2.991,0,0,1,2.991-2.991h1.795a2.991,2.991,0,1,1,0,5.981H17.16v5.383h2.392V19.766A5.383,5.383,0,1,0,19.552,9Z" transform="translate(-1.609 -1.823)"/></svg>